<svg width="44" height="43" viewBox="0 0 44 43" fill="none" xmlns="http://www.w3.org/2000/svg">
<path d="M44 26.3086C44 25.1269 43.6627 24.0147 43.0806 23.0771C42.6974 22.4609 42.2085 21.9198 41.639 21.4759C42.1871 20.7049 42.5593 19.7901 42.6833 18.7893C42.7141 18.5445 42.7283 18.3003 42.7283 18.0586C42.7283 16.5909 42.1809 15.2212 41.2638 14.1762V14.177C40.6002 13.4187 39.7344 12.8278 38.7423 12.4889C38.9516 11.8522 39.063 11.1886 39.0638 10.5196V10.5157V10.5148C39.063 9.81019 38.9406 9.10241 38.6879 8.42703C38.4358 7.75079 38.0536 7.10703 37.5416 6.53512C36.9382 5.85896 36.2129 5.34471 35.4301 5.00191C34.6569 4.66297 33.8266 4.49006 32.994 4.48611C32.9931 4.48611 32.9837 4.48611 32.9695 4.48611V4.48525C32.9672 4.48611 32.9458 4.48448 32.9071 4.48688C32.8091 4.48757 32.7112 4.49084 32.6133 4.49556C32.3273 3.4607 31.7767 2.53335 31.0398 1.79721C30.486 1.24266 29.8248 0.793977 29.0902 0.482711C28.3705 0.177805 27.5783 0.00799221 26.7536 0.000859395C26.7529 0.000859395 26.7378 0.000859375 26.7118 0L26.7101 0L26.7022 0L26.7014 0L26.7006 0L26.6997 0C26.6991 0 26.6982 0 26.6982 0C26.6871 0 26.6705 1.96887e-08 26.646 0.000859395C25.8214 0.00867971 25.0307 0.178578 24.311 0.482711C23.5756 0.793891 22.9152 1.24257 22.3607 1.79721H22.3615C22.2351 1.92354 22.1151 2.05631 21.9997 2.19287C21.8852 2.05623 21.7651 1.92354 21.6387 1.79721C21.0849 1.24266 20.4239 0.793977 19.6892 0.482711C18.9696 0.177805 18.1781 0.00799221 17.3526 0.000859395C17.3526 0.000859395 17.3368 0.000859375 17.3115 0L17.3099 0L17.3021 0L17.3004 0L17.2996 0C17.2996 0 17.2996 0 17.2989 0C17.298 0 17.298 0 17.2972 0C17.2869 0 17.2696 1.96887e-08 17.2459 0.000859395C16.4212 0.00867971 15.6297 0.178578 14.91 0.482711C14.1754 0.793891 13.5143 1.24257 12.9605 1.79721C12.2235 2.53335 11.6737 3.45993 11.387 4.49556C11.2796 4.4892 11.1721 4.48611 11.0639 4.48611V4.48525C11.0639 4.48525 11.0559 4.48525 11.0449 4.48448C11.0425 4.48525 11.0235 4.48448 10.988 4.48611C10.1617 4.49238 9.3378 4.6646 8.57003 5.00113C7.78714 5.34394 7.062 5.85827 6.45855 6.5352C5.93802 7.11657 5.54701 7.77623 5.28782 8.46974C5.02803 9.16326 4.89921 9.89244 4.89921 10.6184C4.89921 10.6184 4.89921 10.6302 4.89921 10.6491H4.89998C4.90325 11.2464 4.99555 11.8412 5.17095 12.4146C4.44735 12.7385 3.79801 13.1966 3.25858 13.7583V13.7567C2.72611 14.3096 2.2972 14.9614 2.0002 15.6818C1.7032 16.4022 1.54043 17.1921 1.54043 18.0128C1.54043 18.0855 1.54206 18.159 1.54438 18.2317C1.57291 19.0445 1.76086 19.8202 2.07599 20.5225C2.20559 20.8108 2.35727 21.0866 2.52785 21.3495C1.88719 21.8157 1.33899 22.4018 0.919617 23.0771C0.337305 24.0147 0 25.1269 0 26.3086C0 27.1532 0.172219 27.9628 0.482625 28.6982C0.793891 29.4337 1.24334 30.094 1.7979 30.6486H1.79713C2.35005 31.2008 3.00816 31.6487 3.74034 31.9598C4.04284 32.0878 4.35806 32.1913 4.68351 32.2703C4.56268 32.7546 4.50106 33.249 4.5002 33.742H4.49943V33.7554V33.7561V33.7577C4.49943 34.6014 4.6732 35.4442 5.01763 36.2287C5.36198 37.0122 5.87778 37.7382 6.5572 38.3426C7.13857 38.8599 7.79659 39.2494 8.48856 39.5077C9.16953 39.7613 9.88436 39.8893 10.5976 39.8924C10.6087 39.8939 10.6182 39.8939 10.6262 39.8939C10.6277 39.8939 10.6294 39.8939 10.6308 39.8939H10.6324C10.6324 39.8939 10.6324 39.8939 10.6332 39.8939H10.649V39.8932C11.2067 39.8924 11.7636 39.8134 12.3023 39.6602C12.4999 39.9382 12.7194 40.1997 12.9604 40.4406V40.4398C13.5142 40.9951 14.1752 41.4438 14.9099 41.7551C15.628 42.0584 16.4179 42.229 17.2403 42.2361C17.2576 42.2369 17.2734 42.2378 17.2987 42.2378H17.2995C17.3002 42.2378 17.3002 42.2378 17.3002 42.2378C17.3185 42.2378 17.3271 42.2369 17.3271 42.2369C18.1613 42.2338 18.9614 42.0624 19.689 41.7551C20.4236 41.4438 21.0848 40.9952 21.6385 40.4406C21.7649 40.3142 21.8849 40.1815 21.9995 40.044C22.1148 40.1815 22.2349 40.3142 22.3613 40.4406C22.915 40.9951 23.5762 41.4438 24.3108 41.7551C25.028 42.0584 25.8179 42.229 26.6411 42.2361C26.6584 42.2369 26.6742 42.2378 26.6987 42.2378C26.6987 42.2378 26.6987 42.2378 26.6994 42.2378C26.7003 42.2378 26.7003 42.2378 26.7003 42.2378C26.701 42.2378 26.701 42.2378 26.701 42.2378C26.7184 42.2378 26.7271 42.2369 26.7271 42.2369C27.5613 42.2338 28.3623 42.0624 29.0898 41.7551C29.8244 41.4438 30.4856 40.9952 31.0393 40.4398V40.4406C31.2802 40.1997 31.4998 39.9382 31.6974 39.6602C32.2416 39.8142 32.8032 39.8939 33.3672 39.8939C33.3672 39.8939 33.368 39.8939 33.3688 39.8939C33.372 39.8939 33.3727 39.8939 33.3751 39.8939C33.3901 39.8939 33.3988 39.8932 33.3995 39.8932C34.1129 39.8893 34.8285 39.762 35.511 39.5068C36.203 39.2494 36.861 38.8599 37.4424 38.3426C38.1217 37.7382 38.6375 37.0122 38.9819 36.2287C39.3232 35.4497 39.497 34.6148 39.4994 33.7775H39.5001C39.5001 33.7648 39.5001 33.7593 39.5001 33.7593V33.7561C39.5001 33.2576 39.4378 32.7592 39.3161 32.2702C39.6415 32.1912 39.9567 32.0877 40.2593 31.9597C40.9916 31.6485 41.6496 31.2006 42.2025 30.6485H42.2018C42.7562 30.094 43.2058 29.4336 43.517 28.6981C43.8278 27.9627 44 27.1532 44 26.3086ZM21.3472 20.565C20.8969 20.411 20.4293 20.3328 19.9521 20.3328C19.509 20.3328 19.0698 20.3999 18.6441 20.5327L18.6275 20.5391C18.0437 20.742 17.4749 20.844 16.9362 20.844C15.9852 20.844 15.1596 20.5288 14.549 19.9347C13.9968 19.3969 13.6809 18.6606 13.6809 17.9142C13.6818 17.249 13.9258 16.6044 14.3864 16.0515C14.617 15.775 14.5799 15.3627 14.3042 15.132C14.1873 15.0341 14.0388 14.9804 13.8855 14.9804C13.6921 14.9804 13.5088 15.0657 13.3848 15.2142C12.7236 16.0049 12.3745 16.9386 12.3753 17.9134C12.3753 19.0098 12.8349 20.0873 13.6367 20.8693C14.482 21.6956 15.6527 22.1506 16.9379 22.1506C17.6172 22.1506 18.3266 22.0242 19.0376 21.7785C19.3346 21.6854 19.6419 21.6388 19.9523 21.6388C20.4366 21.6388 20.9161 21.7565 21.3474 21.9808V27.6139H17.8875C17.5272 27.6139 17.235 27.9069 17.235 28.2672C17.235 28.6266 17.5272 28.9196 17.8875 28.9196H21.3474V36.1009C21.3474 36.6396 21.2423 37.1626 21.0433 37.646C21.0409 37.6508 21.0384 37.6539 21.0361 37.6587C20.8828 38.0275 20.676 38.368 20.4263 38.6713C20.4207 38.6792 20.4145 38.6855 20.409 38.6918C20.3726 38.7353 20.3363 38.7779 20.2992 38.819C20.266 38.8561 20.2312 38.8909 20.1964 38.9264C20.1853 38.9383 20.1743 38.9509 20.1625 38.9629L20.1616 38.9635C20.1538 38.9715 20.1458 38.9778 20.1379 38.9857C20.0992 39.0244 20.0589 39.0631 20.0186 39.0995C19.9958 39.12 19.9727 39.1397 19.9499 39.1595C19.9238 39.1823 19.8978 39.2054 19.871 39.2274C19.8315 39.2598 19.7911 39.2905 19.7501 39.3222C19.7398 39.3301 19.7296 39.338 19.7193 39.3459C19.4601 39.5402 19.1766 39.7029 18.8757 39.8309C18.7556 39.8814 18.6331 39.9257 18.5084 39.9651C18.506 39.966 18.5052 39.966 18.5035 39.9668C18.4491 39.9834 18.3946 39.9992 18.3392 40.0134C18.3281 40.0165 18.3179 40.0196 18.3076 40.0219C18.2603 40.0347 18.2129 40.0441 18.1655 40.0551C18.1465 40.0591 18.1283 40.0639 18.1094 40.0678C18.069 40.0757 18.028 40.0821 17.987 40.0899C17.9609 40.0939 17.9356 40.0994 17.9088 40.1026C17.8725 40.1089 17.8354 40.1121 17.7989 40.1168C17.769 40.1208 17.7381 40.1247 17.7081 40.1279C17.6703 40.1319 17.6332 40.1342 17.5952 40.1366C17.5652 40.139 17.5352 40.1422 17.5051 40.1437C17.4458 40.1468 17.3858 40.1477 17.3258 40.1477C17.317 40.1477 17.3084 40.1485 17.2997 40.1485C17.2902 40.1485 17.28 40.1477 17.2697 40.1477C17.2112 40.1477 17.1528 40.1468 17.0951 40.1437C17.0636 40.1422 17.0327 40.139 17.0011 40.1366C16.9656 40.1342 16.9285 40.1319 16.892 40.1279C16.8605 40.1247 16.8297 40.12 16.798 40.1168C16.7625 40.1122 16.7262 40.1082 16.6906 40.1026C16.6638 40.0994 16.6369 40.0939 16.6101 40.0892C16.5698 40.0821 16.5303 40.0757 16.4908 40.0678C16.471 40.0639 16.4513 40.0584 16.4315 40.0544C16.3849 40.0441 16.3383 40.0339 16.2925 40.0219C16.2815 40.0189 16.2696 40.0157 16.2585 40.0125C16.204 39.9982 16.1504 39.9833 16.0974 39.9667C16.0943 39.9659 16.0911 39.9651 16.0888 39.9643C15.9648 39.9256 15.8431 39.8814 15.7246 39.8308C15.4228 39.7029 15.14 39.5401 14.8802 39.3458C14.8692 39.3379 14.8589 39.3284 14.8478 39.3204C14.8075 39.2897 14.768 39.2596 14.7293 39.2273C14.7 39.2028 14.6716 39.1775 14.6424 39.153C14.6226 39.1357 14.6013 39.1182 14.5815 39.1001C14.5333 39.0558 14.4852 39.01 14.4378 38.9634C14.437 38.9618 14.4361 38.9611 14.4354 38.9603C14.3675 38.8923 14.3019 38.8213 14.2387 38.7478C14.2284 38.7351 14.2174 38.7233 14.2071 38.7106C14.0041 38.469 13.8272 38.2035 13.6833 37.9176C13.681 37.9128 13.677 37.9073 13.6739 37.9017C13.399 37.3488 13.2521 36.7358 13.2521 36.1007C13.2521 35.6172 13.3603 35.092 13.5578 34.622C13.7759 34.1029 14.0981 33.655 14.4899 33.328C14.6242 33.2166 14.7064 33.0595 14.7221 32.8857C14.738 32.7118 14.685 32.5428 14.5736 32.4086C14.4496 32.2601 14.2664 32.1748 14.0721 32.1748C13.9196 32.1748 13.7711 32.2285 13.6542 32.3257C13.102 32.7862 12.6525 33.4063 12.3532 34.118C12.0878 34.7523 11.9472 35.438 11.9463 36.1008C11.9463 36.5795 12.0104 37.0534 12.1359 37.5139C12.0663 37.5416 11.9952 37.5684 11.9234 37.5922C11.9052 37.5984 11.8855 37.6049 11.8673 37.6104C11.8223 37.6246 11.7781 37.638 11.733 37.6507C11.7047 37.6586 11.6762 37.6665 11.647 37.6744C11.6114 37.6831 11.5759 37.6918 11.5396 37.6997C11.5063 37.7084 11.4732 37.7155 11.4401 37.7218C11.4077 37.729 11.3753 37.7345 11.3421 37.7407C11.3074 37.7471 11.2727 37.7526 11.237 37.7581C11.2038 37.7629 11.1707 37.7676 11.1375 37.7715C11.1043 37.7755 11.0704 37.7801 11.0372 37.7841C10.9969 37.7872 10.9574 37.7904 10.9179 37.7929C10.8903 37.7952 10.8634 37.7975 10.8358 37.7992C10.7687 37.8024 10.7007 37.8047 10.6328 37.8047C9.64227 37.8047 8.68716 37.4406 7.94621 36.7818C7.08357 36.014 6.58986 34.9112 6.58909 33.7562C6.58909 33.6954 6.58995 33.6354 6.59304 33.5754C6.60808 33.2295 6.66892 32.885 6.77316 32.55C6.7778 32.5351 6.78176 32.5193 6.78743 32.5035C6.78898 32.4963 6.79216 32.4892 6.79448 32.4829C6.81115 32.4324 6.82851 32.381 6.8475 32.3305C6.84827 32.3281 6.84905 32.3266 6.85059 32.3241C6.87663 32.2547 6.90508 32.1859 6.93593 32.1164C6.93911 32.1101 6.94229 32.1038 6.94461 32.0975C6.97692 32.0263 7.01095 31.956 7.04808 31.885C7.04894 31.8833 7.04971 31.8826 7.04971 31.8826C7.20216 31.5903 7.3902 31.317 7.61209 31.0674C7.85142 30.798 7.82693 30.3849 7.5576 30.1456C7.43832 30.0388 7.28432 29.9805 7.12465 29.9805C6.93825 29.9805 6.75976 30.0611 6.63652 30.2002C6.59785 30.2428 6.56073 30.287 6.5236 30.3313C6.4643 30.3416 6.42718 30.3471 6.39641 30.3502C6.34502 30.355 6.27945 30.3566 6.13723 30.3566C6.13405 30.3566 6.13095 30.3566 6.12777 30.3566C6.12709 30.3566 6.12623 30.3566 6.12545 30.3566C6.05593 30.3566 5.98718 30.3542 5.91843 30.3511C5.91456 30.3502 5.90975 30.3502 5.9058 30.3494C5.84186 30.3462 5.77861 30.3415 5.71622 30.3345C5.70677 30.3345 5.69645 30.3321 5.687 30.3313C5.62934 30.325 5.57245 30.3179 5.51555 30.3091C5.50524 30.3076 5.49579 30.3059 5.48634 30.3044C5.42867 30.2949 5.37178 30.2854 5.31566 30.2736C5.30939 30.272 5.3038 30.2704 5.29753 30.2688C5.23669 30.2562 5.17739 30.2428 5.11818 30.2277C5.11732 30.2271 5.11655 30.2271 5.11577 30.2271C4.92379 30.1772 4.73739 30.1133 4.55649 30.0366C4.2564 29.9094 3.97435 29.7459 3.71602 29.5531C3.70494 29.5453 3.69471 29.5365 3.68362 29.5279C3.64332 29.4971 3.60387 29.467 3.56589 29.4347C3.53753 29.4118 3.50986 29.3873 3.48219 29.3628C3.46088 29.3454 3.43956 29.3265 3.41902 29.3083C3.37004 29.2633 3.32191 29.2182 3.27525 29.1717C3.22781 29.1242 3.18201 29.0752 3.13706 29.0262C3.12752 29.0152 3.11807 29.0041 3.10776 28.9931C3.07459 28.9551 3.04141 28.9172 3.00979 28.8793C2.98298 28.8461 2.95771 28.813 2.93167 28.7798C2.91827 28.7624 2.904 28.7451 2.89137 28.7276C2.85493 28.6795 2.82098 28.6313 2.78704 28.5815C2.78463 28.5776 2.7824 28.5744 2.77999 28.5712C2.63459 28.3556 2.50903 28.1257 2.40711 27.8847C2.33286 27.7079 2.27047 27.5253 2.22148 27.3373C2.21994 27.331 2.21753 27.3247 2.21598 27.3184C2.20258 27.2662 2.19149 27.2141 2.17963 27.1604C2.17654 27.1477 2.17327 27.1343 2.17087 27.1201C2.16141 27.0735 2.15351 27.0261 2.1456 26.9786C2.14242 26.9589 2.1377 26.9399 2.13529 26.9202C2.12893 26.8759 2.12343 26.8317 2.11793 26.7875C2.11561 26.7638 2.11243 26.7417 2.11002 26.7181C2.10538 26.6722 2.1022 26.6264 2.09971 26.5806C2.09816 26.5585 2.09507 26.5364 2.09421 26.5142C2.09112 26.4471 2.08948 26.3783 2.08948 26.3088C2.08948 26.2133 2.09258 26.1177 2.09971 26.0237C2.10366 25.9597 2.11157 25.8965 2.11948 25.8332C2.12274 25.8032 2.12506 25.774 2.12902 25.7447C2.14002 25.6618 2.15505 25.5796 2.17164 25.4983C2.17405 25.4888 2.17482 25.4794 2.17645 25.4699C2.19536 25.383 2.21667 25.2961 2.24116 25.2116C2.24202 25.2076 2.2428 25.2028 2.24357 25.1997C2.26798 25.1151 2.29479 25.0323 2.32409 24.9493C2.32641 24.9438 2.32727 24.939 2.32959 24.9335C2.35727 24.8553 2.38889 24.7795 2.4212 24.7036C2.42602 24.6933 2.42911 24.6831 2.43384 24.6736C2.46546 24.6009 2.50095 24.5298 2.53739 24.4595C2.54375 24.4468 2.54925 24.4334 2.55552 24.4208C2.59901 24.3387 2.64559 24.2581 2.69457 24.1791C2.74278 24.1017 2.7934 24.0258 2.84548 23.9524C3.10621 23.5907 3.42452 23.2739 3.78709 23.0147C3.79423 23.0092 3.8005 23.0037 3.80763 22.999C3.82027 22.9903 3.83367 22.9824 3.8463 22.9738C3.98372 22.8797 4.12595 22.7928 4.27445 22.7162L4.27608 22.7146C4.28072 22.7122 4.28553 22.7098 4.28948 22.7082C4.33924 22.6822 4.38977 22.6585 4.43953 22.6356C4.4672 22.623 4.49402 22.6103 4.52255 22.5977C4.52487 22.5977 4.52719 22.5953 4.52959 22.5945C5.0368 22.3741 5.57545 22.2612 6.13714 22.2612C7.05427 22.2612 7.91768 22.5606 8.63569 23.1269C8.80077 23.3078 9.33084 23.8639 10.1223 24.424C10.6745 24.8143 11.2417 25.127 11.8096 25.3522C12.5348 25.6405 13.2616 25.7867 13.9709 25.7867C14.3304 25.7867 14.6235 25.4936 14.6235 25.1334C14.6235 24.7731 14.3304 24.4808 13.9709 24.4808C13.4282 24.4808 12.8635 24.3656 12.2908 24.1388C11.4629 23.8102 10.7654 23.3023 10.3263 22.9341C10.0767 22.7241 9.8823 22.5376 9.76379 22.4183C9.70062 22.3536 9.65164 22.3022 9.61924 22.2667L9.57825 22.2209L9.5553 22.1948C9.54499 22.183 9.53399 22.1719 9.52127 22.1623L9.49446 22.1395C8.54812 21.3764 7.35694 20.9553 6.13723 20.9553C5.76606 20.9553 5.39318 20.9949 5.02743 21.0731C4.94527 21.002 4.86862 20.9269 4.79359 20.8503C4.76592 20.8234 4.73911 20.7958 4.71221 20.7673C4.68935 20.742 4.66727 20.7168 4.64423 20.6915C4.62447 20.6687 4.60324 20.6449 4.58339 20.6212C4.54077 20.5714 4.49969 20.5201 4.46016 20.4679C4.45225 20.4585 4.44589 20.449 4.43884 20.4395C4.40481 20.3945 4.37173 20.3486 4.34019 20.302C4.33391 20.2934 4.32833 20.2847 4.32197 20.2752C4.28966 20.2271 4.25803 20.1789 4.22718 20.1284C4.22323 20.122 4.21927 20.1157 4.21609 20.1094C4.18378 20.0564 4.15216 20.0027 4.12294 19.9482C4.12062 19.9443 4.11898 19.9411 4.11666 19.9372C4.08581 19.8788 4.05582 19.8203 4.0266 19.7611C4.0266 19.7611 4.0266 19.7594 4.02574 19.7587C3.84957 19.3898 3.72874 18.994 3.67022 18.5848C3.66953 18.5809 3.66867 18.5769 3.66867 18.5769C3.65991 18.5153 3.65441 18.4552 3.64813 18.3961C3.64727 18.3858 3.64581 18.3756 3.64495 18.3653C3.64014 18.3076 3.63705 18.2499 3.63387 18.1915C3.63387 18.1804 3.63232 18.1693 3.63232 18.1582V18.1575C3.63069 18.1093 3.62991 18.0611 3.62991 18.0128C3.62991 17.9457 3.63155 17.8794 3.63473 17.813C3.63559 17.7909 3.63791 17.768 3.63954 17.7459C3.64272 17.7024 3.64504 17.659 3.64899 17.6163C3.6514 17.5895 3.65612 17.5642 3.65845 17.5373C3.66326 17.4978 3.6679 17.4591 3.6734 17.4204C3.67666 17.3951 3.6813 17.3699 3.68526 17.3461C3.69239 17.3059 3.69866 17.2656 3.70657 17.2261C3.71044 17.2048 3.71602 17.1835 3.72075 17.1629C3.72952 17.1194 3.73897 17.0767 3.7492 17.0341C3.75315 17.0184 3.75787 17.0033 3.76183 16.9875C3.77446 16.9401 3.78718 16.892 3.80136 16.8445C3.80454 16.8358 3.80772 16.8256 3.81081 16.8162C3.8274 16.7631 3.84398 16.7111 3.86289 16.6589C3.86366 16.6549 3.86607 16.6511 3.86684 16.6471C3.88738 16.5902 3.90878 16.5333 3.93241 16.4772L3.93319 16.4757C3.9814 16.3572 4.03588 16.2426 4.09509 16.1297C4.09509 16.1297 4.09509 16.1297 4.09595 16.1288C4.12517 16.0728 4.15594 16.0182 4.18756 15.9645C4.18988 15.9598 4.19229 15.9558 4.1947 15.9519C4.22469 15.9021 4.25554 15.8523 4.28708 15.8034C4.29421 15.7932 4.30212 15.7821 4.30925 15.7711C4.33692 15.73 4.36451 15.6889 4.39381 15.6486C4.4104 15.6249 4.4293 15.602 4.44675 15.5791C4.46729 15.5523 4.48705 15.5246 4.50837 15.4977C4.54309 15.4542 4.57866 15.4116 4.61502 15.3697C4.62052 15.3635 4.62533 15.357 4.63005 15.3515C4.67345 15.3025 4.71771 15.2544 4.76274 15.207C4.76438 15.2061 4.76515 15.2047 4.76584 15.2038C4.82513 15.143 4.88598 15.0845 4.94837 15.0276C4.96495 15.0127 4.98154 14.9976 4.9989 14.9827C5.13159 14.8657 5.27141 14.756 5.41922 14.6564C5.42867 14.6509 5.43812 14.6445 5.44758 14.6382C5.60476 14.534 5.76984 14.4408 5.94206 14.3586C5.9437 14.3578 5.94524 14.357 5.94602 14.357C6.21225 14.2306 6.49498 14.1327 6.78966 14.067C6.79207 14.0662 6.7943 14.0655 6.7968 14.0647C7.03691 14.0118 7.28415 13.9794 7.53457 13.9707C7.58038 13.9683 7.62541 13.9683 7.67912 13.9683H7.67989C7.88846 13.9683 8.0978 13.9841 8.30234 14.0157C8.33628 14.0205 8.36945 14.0236 8.40263 14.0236C8.7273 14.0236 8.99748 13.7906 9.04802 13.4698C9.1025 13.1144 8.85758 12.7803 8.50214 12.7249C8.23041 12.6832 7.95472 12.6618 7.6798 12.6618C7.63477 12.6618 7.58897 12.6626 7.54394 12.6642C7.51472 12.6144 7.48791 12.563 7.46178 12.5125C7.43256 12.4581 7.40489 12.4035 7.37885 12.3482C7.3694 12.3276 7.35995 12.3079 7.35118 12.2866C7.32428 12.2274 7.29824 12.1688 7.27452 12.1089C7.26739 12.0907 7.26026 12.0717 7.25398 12.0536C7.23027 11.992 7.20818 11.9304 7.18764 11.8671C7.18128 11.8489 7.17578 11.8292 7.17028 11.8111C7.15137 11.7487 7.13316 11.687 7.11734 11.6246C7.11098 11.6017 7.10626 11.5803 7.10076 11.5575C7.08735 11.4982 7.07309 11.439 7.062 11.379C7.05564 11.349 7.05169 11.3197 7.04619 11.2905C7.03742 11.2368 7.02883 11.1838 7.0217 11.1301C7.0162 11.0866 7.01224 11.0431 7.00829 10.9989C7.00434 10.9586 6.99961 10.9183 6.9972 10.8773C6.9917 10.7927 6.98852 10.7075 6.98852 10.6214V10.6197C6.98852 9.68679 7.30993 8.78788 7.8962 8.06824C7.90255 8.05956 7.9096 8.05166 7.91665 8.04375C7.94905 8.0043 7.98222 7.96477 8.01702 7.92602C8.03834 7.9023 8.06051 7.88021 8.08173 7.85735C8.10941 7.82736 8.13708 7.79728 8.16552 7.76884C8.92229 7.00734 9.95706 6.57448 11.0377 6.57362C11.0394 6.57362 11.0425 6.57362 11.0448 6.57362C11.1144 6.57448 11.183 6.57602 11.2526 6.57998C11.2747 6.58152 11.2968 6.58316 11.3181 6.58462C11.371 6.58857 11.4248 6.59338 11.4777 6.59888C11.4974 6.6012 11.5172 6.60361 11.5377 6.60602C11.6072 6.61461 11.6776 6.62492 11.7471 6.63678C11.7478 6.63747 11.7494 6.63747 11.751 6.63747C11.8253 6.65087 11.8995 6.66677 11.9738 6.68491C12.6105 6.83659 13.2045 7.14158 13.7052 7.57917C13.8443 7.73712 14.4462 8.40623 15.2259 9.09751C15.7511 9.56192 16.2512 9.94348 16.7125 10.231C17.0025 10.4112 17.2709 10.5517 17.5324 10.6608C17.842 10.7895 18.1265 10.867 18.4021 10.897C18.4265 10.9001 18.4503 10.9017 18.4748 10.9017C18.8081 10.9017 19.0861 10.652 19.1232 10.3203C19.1422 10.1473 19.0933 9.97674 18.9843 9.84079C18.8752 9.70415 18.7196 9.61881 18.5458 9.59991C18.3996 9.58409 18.2228 9.53348 18.0331 9.4545C17.706 9.31941 17.315 9.08634 16.9019 8.78075C16.2874 8.32648 15.7091 7.78061 15.3324 7.40231C15.1184 7.18738 14.9445 7.00253 14.8371 6.88566C14.7787 6.82172 14.7329 6.7711 14.702 6.73716L14.6681 6.69771L14.4721 6.87148L14.6586 6.68748L14.642 6.66849L14.6199 6.64563L14.6001 6.62827C14.2013 6.27206 13.7549 5.97893 13.2707 5.75704C13.3039 5.39756 13.3844 5.05166 13.5053 4.72544C13.5093 4.71513 13.5132 4.70568 13.5172 4.69545C13.5338 4.65119 13.5511 4.6078 13.5693 4.56431C13.5764 4.54773 13.5843 4.53114 13.5914 4.51447C13.6073 4.47812 13.623 4.44177 13.6396 4.40705C13.6499 4.38496 13.6609 4.36442 13.6712 4.34302C13.6862 4.31226 13.7012 4.28218 13.717 4.2515C13.7297 4.22778 13.7438 4.20406 13.7573 4.17957C13.7716 4.15353 13.7858 4.12663 13.8016 4.10051C13.8166 4.07361 13.8332 4.04843 13.849 4.0223C13.8633 3.99944 13.8767 3.97573 13.8917 3.95287C13.9098 3.92451 13.9288 3.89684 13.9477 3.8683C13.9611 3.84854 13.9746 3.82877 13.9888 3.80909C14.0101 3.77833 14.0331 3.74748 14.0559 3.71662C14.0678 3.70081 14.0788 3.68509 14.0907 3.66919C14.1183 3.63447 14.146 3.59966 14.1737 3.56658C14.1831 3.55549 14.191 3.54441 14.1997 3.53341C14.2337 3.49387 14.2677 3.45598 14.3016 3.41722C14.3064 3.41241 14.3111 3.40691 14.3159 3.40218C14.3553 3.35869 14.3956 3.31607 14.4376 3.27422C14.485 3.22764 14.5331 3.18184 14.5821 3.1368C14.5964 3.12417 14.6114 3.11231 14.6256 3.09968C14.6596 3.06891 14.6943 3.03884 14.7299 3.00884C14.763 2.98195 14.7978 2.95513 14.8325 2.92909C14.8484 2.91646 14.865 2.90305 14.8815 2.89034C14.9289 2.85484 14.9779 2.8209 15.0269 2.78687C15.0308 2.78446 15.034 2.78137 15.0379 2.77973C15.2528 2.63433 15.4827 2.50886 15.7244 2.40694C15.8405 2.35795 15.9606 2.3137 16.0823 2.2758C16.0878 2.27339 16.0926 2.27184 16.0972 2.27021C16.1494 2.2544 16.2023 2.23945 16.2545 2.22527C16.2671 2.22209 16.2797 2.21891 16.2931 2.21495C16.3382 2.20309 16.384 2.19364 16.4299 2.18333C16.4503 2.17937 16.4701 2.17387 16.4907 2.16992C16.5302 2.16202 16.5697 2.15566 16.61 2.14861C16.6368 2.14397 16.6637 2.1383 16.6905 2.13443C16.7261 2.12884 16.7625 2.12566 16.7979 2.12102C16.8296 2.11707 16.8604 2.11226 16.892 2.10916C16.9284 2.10598 16.9662 2.10366 17.0026 2.10126C17.0334 2.09894 17.0635 2.09576 17.095 2.09421C17.1543 2.09112 17.2135 2.09026 17.2736 2.08948C17.2824 2.08948 17.291 2.08948 17.2997 2.08948C17.31 2.08948 17.3195 2.08948 17.3297 2.09026C17.3882 2.09026 17.4466 2.09112 17.5051 2.09421C17.5367 2.09576 17.5683 2.09894 17.5991 2.10126C17.6355 2.10366 17.6718 2.10607 17.7074 2.10916C17.7397 2.11312 17.7714 2.11707 17.8038 2.12102C17.8386 2.12566 17.8741 2.12884 17.9089 2.13443C17.9365 2.1383 17.9641 2.14388 17.991 2.14938C18.0305 2.15566 18.0701 2.16202 18.1088 2.16992C18.1292 2.17387 18.1497 2.17937 18.1711 2.18419C18.2162 2.19364 18.262 2.20395 18.307 2.21504C18.3196 2.21899 18.3323 2.22217 18.3449 2.22535C18.3978 2.23953 18.4499 2.25457 18.5013 2.2703C18.5068 2.27193 18.5115 2.27348 18.517 2.27588C18.6387 2.3137 18.758 2.35795 18.8757 2.40702C19.1166 2.50963 19.3465 2.6345 19.5622 2.77982C19.5646 2.78145 19.567 2.78291 19.5701 2.78541C19.6199 2.81927 19.6696 2.85407 19.7186 2.89119C19.7344 2.90228 19.7494 2.91491 19.7652 2.92677C19.8 2.95436 19.8355 2.98126 19.8703 3.0097C19.9043 3.03738 19.9366 3.06659 19.9698 3.09581C19.9856 3.11008 20.0014 3.12262 20.018 3.13689C20.0662 3.18192 20.1151 3.22773 20.1617 3.2743C20.2091 3.32174 20.255 3.37073 20.3 3.41971C20.319 3.44025 20.3371 3.46242 20.3553 3.48365C20.3798 3.51132 20.4043 3.53899 20.4273 3.56666C20.6769 3.87002 20.883 4.2112 21.0363 4.57927C21.0386 4.58322 21.0411 4.58717 21.0427 4.59198C21.2425 5.07538 21.3476 5.59831 21.3476 6.13705V20.565H21.3472ZM41.906 26.514C41.9043 26.5362 41.902 26.5583 41.9004 26.5796C41.8981 26.6262 41.8949 26.672 41.8901 26.7179C41.8877 26.7407 41.8846 26.7628 41.8822 26.7858C41.8767 26.8299 41.8719 26.8758 41.8649 26.92C41.8626 26.9389 41.8586 26.9579 41.8554 26.9769C41.8475 27.0243 41.8388 27.0732 41.8293 27.1206C41.827 27.1332 41.8238 27.1459 41.8206 27.1586C41.8095 27.2123 41.7978 27.266 41.7835 27.3189C41.7827 27.3237 41.7812 27.3292 41.7795 27.334C41.7306 27.5235 41.6682 27.7068 41.5931 27.8845C41.4652 28.1854 41.3016 28.469 41.108 28.7281C41.0994 28.74 41.0891 28.7526 41.0797 28.7653C41.0505 28.8032 41.0204 28.8419 40.9896 28.879C40.9643 28.9107 40.9374 28.9407 40.9105 28.9715C40.8948 28.9897 40.8789 29.0086 40.8623 29.0268C40.8181 29.0758 40.7723 29.124 40.7257 29.1705L40.7248 29.1714C40.7177 29.1777 40.7106 29.184 40.7035 29.1912C40.6641 29.2306 40.6229 29.2701 40.5819 29.3073C40.5606 29.3263 40.5384 29.3452 40.5171 29.3634C40.4903 29.3878 40.4626 29.4115 40.4341 29.4352C40.3963 29.466 40.3575 29.4961 40.3189 29.5261C40.307 29.5348 40.2951 29.5443 40.2833 29.5537C40.2328 29.5909 40.1814 29.628 40.1293 29.6636C40.1284 29.6636 40.1284 29.6643 40.1277 29.6643C39.9136 29.809 39.6846 29.9345 39.4436 30.0372C39.2642 30.113 39.0787 30.1763 38.8867 30.226C38.8851 30.2268 38.8835 30.2268 38.882 30.2276C38.8227 30.2426 38.7635 30.2561 38.7043 30.2686C38.6979 30.2703 38.6909 30.2718 38.6845 30.2735C38.6284 30.2852 38.5707 30.2948 38.5138 30.3042C38.5044 30.3058 38.4949 30.3074 38.4855 30.309C38.4286 30.3177 38.3709 30.3248 38.3133 30.3311C38.3037 30.3319 38.2943 30.3343 38.284 30.3343C38.2216 30.3414 38.1584 30.3462 38.0951 30.3493C38.0904 30.35 38.0857 30.35 38.0817 30.3509C38.0131 30.354 37.9443 30.3564 37.8748 30.3564C37.8739 30.3564 37.8739 30.3564 37.8732 30.3564C37.8692 30.3564 37.866 30.3564 37.8629 30.3564C37.7926 30.3564 37.7405 30.3564 37.7025 30.3548C37.6535 30.354 37.6314 30.3517 37.5958 30.3461C37.565 30.3413 37.5255 30.3342 37.4702 30.324C37.4354 30.2821 37.3999 30.241 37.3635 30.2C37.2402 30.0609 37.0618 29.9803 36.8754 29.9803C36.7159 29.9803 36.5618 30.0388 36.4425 30.1454C36.1732 30.3847 36.1487 30.7978 36.388 31.0672C36.61 31.3168 36.7971 31.5893 36.9496 31.8801C36.9505 31.8817 36.9512 31.8832 36.9519 31.8849C36.989 31.9559 37.0231 32.027 37.0555 32.0981C37.0587 32.1037 37.061 32.1099 37.0634 32.1154C37.095 32.1857 37.1242 32.2568 37.151 32.3271C37.1519 32.3279 37.1519 32.3295 37.1527 32.3303C37.1574 32.3446 37.1621 32.358 37.1669 32.3722C37.1828 32.4156 37.1992 32.4599 37.2135 32.5041V32.505C37.3454 32.911 37.411 33.3345 37.411 33.7562C37.4103 34.8384 36.9757 35.8749 36.2127 36.6323C36.1613 36.6828 36.1084 36.7326 36.0539 36.7817C36.0073 36.8228 35.9599 36.8631 35.9116 36.9025C35.1928 37.4846 34.2962 37.8046 33.3673 37.8046C33.2993 37.8046 33.2322 37.8023 33.1643 37.7991C33.1374 37.7975 33.1106 37.7951 33.0837 37.7935C33.0434 37.7903 33.0031 37.788 32.962 37.7841C32.9296 37.7801 32.898 37.7754 32.8657 37.7722C32.8309 37.7674 32.7954 37.7627 32.7606 37.7579C32.7274 37.7524 32.6942 37.7468 32.6611 37.7406C32.6263 37.7342 32.5915 37.7279 32.5575 37.7217C32.526 37.7145 32.4943 37.7083 32.4635 37.7011C32.4248 37.6917 32.3861 37.6829 32.3474 37.6726C32.3213 37.6655 32.2952 37.6585 32.27 37.6514C32.221 37.638 32.172 37.6228 32.1238 37.6079C32.1087 37.6023 32.0938 37.5983 32.0787 37.5928C32.0069 37.5691 31.9351 37.5423 31.8639 37.5138C31.9895 37.0533 32.0535 36.5794 32.0535 36.1006C32.0526 35.5809 31.9634 35.0326 31.7944 34.5152C31.5053 33.6328 31.0044 32.8753 30.3456 32.3255C29.9696 32.0119 29.5454 31.7686 29.0841 31.6027C28.5911 31.4258 28.0524 31.3357 27.4837 31.3357C27.1234 31.3357 26.8304 31.628 26.8304 31.9882C26.8304 32.3483 27.1234 32.6406 27.4828 32.6406C28.0302 32.6414 28.5263 32.7513 28.9592 32.9677C29.52 33.2489 29.9853 33.7197 30.3053 34.3312C30.5873 34.8683 30.7484 35.5129 30.7476 36.1006C30.7476 36.7357 30.6007 37.3486 30.3258 37.9016C30.3226 37.9064 30.3194 37.9127 30.3163 37.9175C30.1726 38.2034 29.9956 38.4697 29.7926 38.7113C29.7823 38.7232 29.7721 38.735 29.761 38.7469C29.6979 38.8211 29.6314 38.8938 29.5628 38.9625C29.5619 38.9625 29.5619 38.9625 29.5619 38.9625V38.9632C29.554 38.9711 29.5461 38.9775 29.5382 38.9854C29.4986 39.024 29.4592 39.0628 29.4181 39.0992C29.396 39.1197 29.3722 39.1394 29.3494 39.1591C29.3233 39.182 29.298 39.205 29.2712 39.227C29.2309 39.2594 29.1906 39.2902 29.1503 39.3218C29.14 39.3297 29.1298 39.3376 29.1196 39.3455C28.8597 39.5398 28.5769 39.7025 28.2752 39.8306C28.155 39.8811 28.0326 39.9254 27.9079 39.9648C27.9062 39.9657 27.9047 39.9657 27.903 39.9664C27.8493 39.983 27.7941 39.9988 27.7387 40.013C27.7284 40.0161 27.7182 40.0193 27.7079 40.0216C27.6604 40.0343 27.6131 40.0438 27.5657 40.0548C27.5468 40.0587 27.5278 40.0635 27.5096 40.0675C27.4685 40.0753 27.4275 40.0818 27.3872 40.0896C27.3611 40.0935 27.3351 40.099 27.309 40.1022C27.2726 40.1086 27.2363 40.1118 27.1992 40.1165C27.1685 40.1204 27.1384 40.1244 27.1076 40.1276C27.0705 40.1315 27.0334 40.1338 26.9955 40.1362C26.9655 40.1387 26.9354 40.1418 26.9047 40.1434C26.8454 40.1465 26.7862 40.1473 26.7261 40.1473C26.7175 40.1473 26.7089 40.1481 26.7001 40.1481C26.6898 40.1481 26.6803 40.1473 26.6701 40.1473C26.6116 40.1473 26.5524 40.1465 26.4947 40.1434C26.4639 40.1418 26.4323 40.1387 26.4015 40.1362C26.3653 40.1338 26.3288 40.1315 26.2925 40.1276C26.261 40.1244 26.2293 40.1197 26.1985 40.1165C26.1621 40.1118 26.1265 40.1079 26.0911 40.1022C26.0642 40.099 26.0373 40.0935 26.0104 40.0888C25.9702 40.0818 25.9306 40.0754 25.8903 40.0675C25.8705 40.0635 25.8516 40.058 25.8319 40.0541C25.7853 40.0438 25.7386 40.0336 25.6928 40.0216C25.681 40.0185 25.67 40.0153 25.6589 40.0122C25.6044 39.9979 25.5498 39.9829 25.497 39.9663C25.4946 39.9656 25.4915 39.9647 25.4891 39.9639C25.3643 39.9253 25.2434 39.881 25.1241 39.8305C24.8231 39.7025 24.5395 39.5398 24.2804 39.3455C24.2694 39.3375 24.2584 39.3281 24.2473 39.3201C24.2078 39.2893 24.1675 39.2593 24.1288 39.2269C24.0995 39.2025 24.0711 39.1772 24.0426 39.1527C24.0229 39.1353 24.0016 39.1179 23.9818 39.0998C23.9327 39.0555 23.8846 39.0097 23.8379 38.963C23.7905 38.9156 23.7448 38.8675 23.6997 38.8178C23.6736 38.7893 23.6484 38.7585 23.6231 38.7293C23.6065 38.7095 23.5891 38.6897 23.5726 38.6708C23.3229 38.3674 23.1168 38.0261 22.9635 37.6582C22.9612 37.6533 22.9587 37.6502 22.9564 37.6454C22.7574 37.162 22.6523 36.6391 22.6523 36.1004V19.9229C23.4872 19.9544 24.2163 20.0508 24.8206 20.2088C25.3996 20.3588 25.868 20.5627 26.2512 20.8297C26.5387 21.0303 26.7718 21.2626 26.9661 21.5414C27.2457 21.9419 27.4447 22.4427 27.6107 23.1647C27.666 23.4033 27.7135 23.6434 27.7631 23.8978C27.8097 24.1332 27.8579 24.3781 27.9123 24.6189C28.0167 25.0778 28.1225 25.4239 28.2552 25.743C28.3815 26.0479 28.5277 26.3134 28.7031 26.5527C29.0017 26.9643 29.388 27.2976 29.8517 27.5441C30.3462 27.8079 30.9268 27.98 31.6274 28.0701C31.6559 28.0741 31.6835 28.0765 31.712 28.0765C32.0382 28.0765 32.3163 27.8315 32.3581 27.5061C32.3811 27.3339 32.3344 27.1617 32.2279 27.0242C32.1213 26.886 31.9671 26.7983 31.7949 26.7754C31.1677 26.6948 30.6803 26.5376 30.3052 26.2974C30.0326 26.122 29.8249 25.9088 29.6526 25.626C29.5183 25.4048 29.4062 25.1377 29.3091 24.8076C29.2048 24.4576 29.1282 24.0698 29.0476 23.659C29.001 23.4228 28.9529 23.1779 28.8967 22.9307C28.7981 22.4947 28.6496 21.922 28.3739 21.3642C28.1646 20.9425 27.8999 20.5679 27.5855 20.2512C27.0539 19.7133 26.3429 19.3048 25.4732 19.0364C24.6849 18.7938 23.7607 18.6556 22.6524 18.6177V13.9049H26.4386C26.7988 13.9049 27.0919 13.611 27.0919 13.2516C27.0919 12.8914 26.7988 12.5984 26.4386 12.5984H22.6524V6.13671C22.6524 5.59797 22.7575 5.07504 22.9566 4.59164C22.9589 4.58683 22.9614 4.58287 22.9637 4.57892C23.1169 4.21077 23.3231 3.86959 23.5727 3.56632C23.5861 3.55042 23.6004 3.53469 23.6138 3.51888C23.6423 3.48571 23.6707 3.45168 23.7007 3.41859C23.7354 3.37984 23.771 3.34348 23.8073 3.30636C23.8176 3.29605 23.827 3.28505 23.8381 3.27387C23.8848 3.22661 23.9337 3.18072 23.9827 3.13646C23.9969 3.12383 24.0111 3.11197 24.0254 3.09934C24.0601 3.06857 24.0948 3.03849 24.1296 3.0085C24.1636 2.9816 24.1976 2.95479 24.2322 2.92875C24.2488 2.91612 24.2647 2.90271 24.2812 2.88999C24.3294 2.8545 24.3775 2.82055 24.4274 2.78652C24.4313 2.78412 24.4344 2.78102 24.4376 2.77939C24.6533 2.63398 24.8831 2.50852 25.1241 2.40659C25.241 2.35761 25.361 2.31335 25.4826 2.27545C25.4882 2.27305 25.4929 2.2715 25.4985 2.26987C25.549 2.25405 25.602 2.2391 25.6548 2.22492C25.6676 2.22174 25.6802 2.21856 25.6928 2.21461C25.7386 2.20275 25.7844 2.1933 25.8302 2.18298C25.85 2.17903 25.8705 2.17353 25.8902 2.16958C25.9305 2.16167 25.9708 2.15531 26.0104 2.14827C26.0373 2.14362 26.0641 2.13795 26.091 2.13409C26.1265 2.1285 26.162 2.12532 26.1984 2.12068C26.2292 2.11673 26.2609 2.11191 26.2924 2.10882C26.3288 2.10564 26.3659 2.10332 26.403 2.10091C26.4339 2.09859 26.4639 2.09541 26.4946 2.09387C26.5539 2.09077 26.6139 2.08991 26.674 2.08914C26.6826 2.08914 26.6913 2.08914 26.7 2.08914C26.7095 2.08914 26.7198 2.08914 26.73 2.08991C26.7884 2.08991 26.847 2.09077 26.9046 2.09387C26.9362 2.09541 26.9678 2.09859 26.9993 2.10091C27.0358 2.10332 27.072 2.10573 27.1075 2.10882C27.1391 2.11277 27.1715 2.11673 27.2039 2.12068C27.2387 2.12532 27.2742 2.1285 27.3082 2.13409C27.3365 2.13795 27.3634 2.14354 27.3911 2.14904C27.4299 2.15531 27.4693 2.16167 27.508 2.16958C27.5293 2.17353 27.5499 2.17903 27.5704 2.18384C27.6154 2.1933 27.6612 2.20361 27.7062 2.2147C27.7197 2.21865 27.7323 2.22183 27.7449 2.22501C27.7971 2.23919 27.85 2.25423 27.9013 2.26995C27.9061 2.27159 27.9116 2.27313 27.9163 2.27554C28.0387 2.31335 28.1588 2.35761 28.2749 2.40668C28.5166 2.50929 28.7465 2.63416 28.9621 2.77948C28.9645 2.78111 28.9669 2.78257 28.9693 2.78506C29.0198 2.81892 29.0696 2.85373 29.1186 2.89085C29.1336 2.90194 29.1494 2.91457 29.1644 2.92643C29.1998 2.95402 29.2355 2.98091 29.2695 3.00936C29.3034 3.03703 29.3366 3.06625 29.3697 3.09547C29.3856 3.10973 29.4021 3.12228 29.4172 3.13655C29.4662 3.18158 29.5143 3.22738 29.5617 3.27396C29.6037 3.3159 29.6439 3.35852 29.6842 3.40192C29.685 3.40269 29.685 3.40355 29.6857 3.40433C29.7245 3.44609 29.7624 3.48958 29.7987 3.53306C29.8066 3.54252 29.8137 3.55197 29.8208 3.56065C29.8508 3.59623 29.8801 3.63258 29.9085 3.66893C29.9203 3.68474 29.9307 3.70055 29.9424 3.71551C29.9653 3.74636 29.9883 3.77712 30.0104 3.80875C30.0247 3.82852 30.0381 3.84905 30.0515 3.86873C30.0704 3.89641 30.0895 3.92408 30.1075 3.95244C30.1226 3.9753 30.1367 3.99902 30.151 4.02273C30.1668 4.048 30.1826 4.07412 30.1976 4.10016C30.2134 4.12629 30.2276 4.1531 30.2426 4.18069C30.256 4.20372 30.2694 4.22735 30.2821 4.25107C30.298 4.28184 30.3129 4.31346 30.3287 4.34423C30.339 4.36477 30.3493 4.3853 30.3596 4.40662C30.3762 4.44219 30.3921 4.47855 30.4078 4.51567C30.4149 4.5314 30.4228 4.5473 30.4299 4.56457C30.4481 4.60728 30.4654 4.65154 30.4828 4.6958C30.486 4.70611 30.4899 4.71556 30.4939 4.72502C30.6147 5.05123 30.6953 5.39722 30.7285 5.75747C30.2443 5.97944 29.798 6.27172 29.3983 6.62793C29.1296 6.86804 29.1068 7.282 29.3461 7.55064C29.4701 7.68891 29.6471 7.76866 29.8335 7.76866C29.9938 7.76866 30.1479 7.70937 30.268 7.6028C30.7711 7.15327 31.3723 6.84131 32.0176 6.68645C32.1655 6.65165 32.3146 6.62484 32.464 6.60593C32.4814 6.60352 32.4988 6.60198 32.5162 6.60034C32.5714 6.5933 32.6275 6.58857 32.6836 6.58539C32.7033 6.58376 32.7247 6.58221 32.7452 6.58058C32.8146 6.5774 32.8849 6.5743 32.9552 6.5743C32.9575 6.5743 32.96 6.5743 32.9616 6.5743C34.0423 6.57508 35.0778 7.00726 35.8338 7.76866C35.8843 7.81919 35.9341 7.87213 35.9831 7.92662C36.0235 7.97234 36.0629 8.01823 36.1008 8.06403C36.1364 8.10829 36.1711 8.15255 36.2043 8.19758C36.2067 8.20067 36.2091 8.20308 36.2114 8.20617C36.2422 8.24811 36.2714 8.28987 36.3007 8.33259C36.3054 8.33963 36.311 8.34676 36.3156 8.3539C36.3417 8.39188 36.3654 8.42978 36.389 8.46845C36.3978 8.48109 36.4056 8.49294 36.4135 8.50644C36.4333 8.53875 36.4523 8.57192 36.4712 8.60595C36.4815 8.62495 36.4933 8.64394 36.5035 8.66293C36.5185 8.68974 36.5319 8.71741 36.5462 8.745C36.5596 8.77035 36.5739 8.79716 36.5865 8.8232C36.5967 8.84452 36.6071 8.8666 36.6173 8.888C36.6315 8.92031 36.6473 8.9528 36.6608 8.98597C36.6686 9.0041 36.6757 9.02232 36.6836 9.04045C36.6986 9.0768 36.7136 9.11307 36.727 9.14942C36.7334 9.16678 36.7389 9.18423 36.7459 9.20159C36.7593 9.2394 36.7721 9.27652 36.7847 9.31451C36.7902 9.33187 36.795 9.34931 36.8005 9.36667C36.8124 9.40457 36.8242 9.44247 36.8344 9.48123C36.84 9.50177 36.8448 9.5223 36.8503 9.54276C36.8598 9.57756 36.8685 9.61237 36.8764 9.64786C36.8827 9.6763 36.889 9.70552 36.8945 9.73474C36.9001 9.76173 36.9056 9.78854 36.9111 9.81612C36.9182 9.85806 36.9245 9.90069 36.9309 9.9434C36.9332 9.9568 36.9356 9.97176 36.9379 9.98602C36.9616 10.1606 36.9735 10.3383 36.9735 10.5193C36.9735 10.6022 36.9703 10.6851 36.9648 10.7689C36.964 10.787 36.9624 10.8052 36.9615 10.8242C36.9553 10.9032 36.9474 10.983 36.9363 11.0628C36.934 11.081 36.9308 11.0991 36.9284 11.1172C36.9189 11.1836 36.9078 11.2491 36.8944 11.3148C36.8906 11.3361 36.8866 11.3574 36.8827 11.3787C36.8661 11.4522 36.8479 11.5256 36.8289 11.5991C36.8218 11.6267 36.8139 11.6544 36.8061 11.6821C36.7871 11.7469 36.7673 11.8108 36.7452 11.8748C36.7365 11.9017 36.7263 11.9286 36.7176 11.9555C36.6954 12.017 36.6717 12.0771 36.6473 12.1371C36.637 12.1624 36.6267 12.1877 36.6156 12.2121C36.5849 12.284 36.5517 12.3567 36.5169 12.4278C36.5075 12.4467 36.4971 12.4656 36.4869 12.4853C36.4522 12.5541 36.4143 12.6236 36.3755 12.6915C36.2776 12.8605 36.1701 13.0249 36.0502 13.1828C36.0344 13.201 36.0193 13.2208 36.0059 13.2405C35.8851 13.3946 35.7586 13.5391 35.6299 13.6686C35.3945 13.9064 35.062 14.1498 34.6694 14.3732C34.0817 14.7073 33.4419 14.9538 33.0081 15.1008C32.7609 15.1853 32.5539 15.2469 32.4244 15.2841C32.3541 15.303 32.2987 15.3189 32.2609 15.3283L32.2103 15.341C31.8604 15.4263 31.6448 15.7802 31.7292 16.1293C31.8004 16.424 32.061 16.6286 32.3635 16.6286C32.4156 16.6286 32.4678 16.6223 32.5184 16.6103C32.5871 16.5938 33.2151 16.4366 34.0066 16.1253C34.4869 15.9358 34.9269 15.728 35.314 15.5084C35.8235 15.2193 36.2295 14.9175 36.5573 14.5874C36.6609 14.4838 36.7619 14.3732 36.8599 14.2587C36.9594 14.2604 37.0597 14.2667 37.1601 14.2746C37.1639 14.2762 37.1687 14.277 37.1735 14.277C37.2255 14.2816 37.2619 14.2848 37.2832 14.2864C37.2848 14.2873 37.2864 14.2873 37.2872 14.2873C37.2935 14.2873 37.299 14.2888 37.3014 14.2888H37.3022H37.303C37.3243 14.292 37.3457 14.2952 37.3669 14.2984C37.4033 14.3039 37.4404 14.3078 37.4767 14.3142C38.1561 14.4311 38.7881 14.7289 39.3086 15.1744C39.3141 15.1791 39.3189 15.1839 39.3244 15.1885C39.3569 15.2162 39.3883 15.2454 39.42 15.2746C39.431 15.2849 39.4428 15.2952 39.4548 15.3055C39.4785 15.3283 39.5022 15.3529 39.5259 15.3773C39.5433 15.3939 39.5606 15.4106 39.5772 15.4287C39.5906 15.4421 39.6025 15.4564 39.6151 15.4698C39.6412 15.4975 39.6673 15.5251 39.6926 15.5535V15.5543C39.7597 15.6301 39.823 15.7091 39.8837 15.7904C39.89 15.7999 39.8972 15.8085 39.905 15.8181C39.9272 15.8489 39.9484 15.8812 39.9706 15.9121C39.9809 15.9271 39.9919 15.943 40.0021 15.9587C40.0203 15.9864 40.0377 16.0139 40.0558 16.0424C40.0685 16.0629 40.0811 16.0827 40.0937 16.1024C40.1088 16.1277 40.1222 16.1529 40.1372 16.1775C40.1506 16.202 40.1656 16.2265 40.1791 16.251C40.191 16.2731 40.2012 16.2952 40.2131 16.3173C40.2273 16.3458 40.2431 16.3743 40.2573 16.4034C40.266 16.4216 40.2739 16.4405 40.2826 16.4594C40.2984 16.4926 40.3142 16.5259 40.3285 16.559C40.3348 16.574 40.3403 16.589 40.3474 16.604C40.3624 16.642 40.3782 16.6799 40.3932 16.7185C40.3972 16.7296 40.4011 16.7423 40.4059 16.7533C40.4209 16.7953 40.4359 16.837 40.4501 16.8798C40.4534 16.8884 40.4557 16.8971 40.458 16.9066C40.473 16.9516 40.4872 16.9974 40.4999 17.0432C40.5015 17.0503 40.5031 17.0566 40.5046 17.0637C40.518 17.112 40.5307 17.1594 40.5417 17.2083C40.5433 17.2147 40.5441 17.2209 40.5457 17.2272C40.5567 17.2762 40.567 17.3259 40.5764 17.375C40.578 17.3837 40.5787 17.3916 40.5804 17.3994C40.5883 17.4469 40.597 17.495 40.6032 17.5433C40.6049 17.5559 40.6056 17.5685 40.608 17.5804C40.6135 17.6247 40.6184 17.6688 40.623 17.7131C40.6246 17.7344 40.6261 17.7558 40.627 17.777C40.6301 17.8135 40.6332 17.849 40.6349 17.8845C40.6373 17.9421 40.6387 17.9998 40.6387 18.0583C40.6387 18.1365 40.6356 18.2155 40.6309 18.2945C40.6261 18.3727 40.619 18.4524 40.6095 18.5314C40.6086 18.5347 40.608 18.537 40.608 18.5402C40.6008 18.6001 40.5913 18.6602 40.5811 18.7186C40.5795 18.7281 40.5772 18.7369 40.5756 18.7455C40.5661 18.8008 40.555 18.8553 40.5424 18.9098C40.5424 18.9122 40.5415 18.9145 40.5408 18.916C40.3836 19.597 40.0408 20.2226 39.5533 20.7211C39.5487 20.7258 39.5447 20.7298 39.5399 20.7345C39.5028 20.7725 39.4641 20.8103 39.4247 20.8467C39.4151 20.8554 39.4057 20.864 39.3954 20.8735C39.3062 20.9541 39.2137 21.0323 39.1166 21.1057C38.7035 21.0054 38.2825 20.9548 37.8614 20.9548C36.6425 20.9548 35.4514 21.3759 34.505 22.139C34.2254 22.3649 34.1811 22.7772 34.4071 23.0569C34.5318 23.2117 34.7168 23.3001 34.9157 23.3001C35.0642 23.3001 35.2096 23.2488 35.3257 23.1555C36.0509 22.5702 36.9285 22.2606 37.8622 22.2606C38.1711 22.2606 38.4776 22.2953 38.7753 22.3648C38.8891 22.4533 39.0329 22.5039 39.1791 22.5039C39.1972 22.5039 39.2154 22.503 39.2343 22.5015C39.4034 22.5623 39.5637 22.6318 39.7122 22.7085C39.7154 22.7101 39.7186 22.7116 39.721 22.7133L39.7233 22.714V22.7147L39.725 22.7156C39.8735 22.7922 40.0156 22.8791 40.1531 22.9732C40.1657 22.9818 40.1791 22.9897 40.1918 22.9984C40.1989 23.0031 40.2052 23.0095 40.2123 23.0141C40.6484 23.3263 41.0212 23.7219 41.3048 24.1786C41.3537 24.2577 41.3996 24.3382 41.443 24.4203C41.4517 24.4361 41.4588 24.4527 41.4667 24.4692C41.5015 24.5364 41.5346 24.6035 41.5655 24.6715C41.5701 24.6832 41.5749 24.6959 41.5797 24.7069C41.6113 24.7821 41.6421 24.8563 41.6697 24.9329C41.672 24.9392 41.6737 24.9463 41.6761 24.9526C41.7053 25.034 41.7321 25.1154 41.7558 25.1991C41.7566 25.2039 41.7575 25.2086 41.759 25.2134C41.7827 25.2979 41.804 25.3833 41.8229 25.4693C41.8246 25.4796 41.8261 25.4891 41.8278 25.4993C41.8443 25.5799 41.8593 25.6621 41.8704 25.7441C41.8743 25.7734 41.8767 25.8026 41.8798 25.8326C41.8877 25.8958 41.8956 25.9591 41.8996 26.0231C41.9067 26.1171 41.9099 26.2127 41.9099 26.3082C41.9107 26.3781 41.9091 26.4469 41.906 26.514Z" fill="#F2EBE5"/>
</svg>
