<svg width="30" height="30" viewBox="0 0 30 30" fill="none" xmlns="http://www.w3.org/2000/svg">
<path fill-rule="evenodd" clip-rule="evenodd" d="M15.0002 23.1818C19.5189 23.1818 23.182 19.5187 23.182 15C23.182 10.4813 19.5189 6.81818 15.0002 6.81818C10.4815 6.81818 6.81836 10.4813 6.81836 15C6.81836 19.5187 10.4815 23.1818 15.0002 23.1818ZM15.0002 20.4545C18.0126 20.4545 20.4547 18.0124 20.4547 15C20.4547 11.9875 18.0126 9.54545 15.0002 9.54545C11.9877 9.54545 9.54563 11.9875 9.54563 15C9.54563 18.0124 11.9877 20.4545 15.0002 20.4545Z" fill="#40403E"/>
<path d="M23.182 5.45453C22.4289 5.45453 21.8184 6.06506 21.8184 6.81817C21.8184 7.57127 22.4289 8.1818 23.182 8.1818C23.9351 8.1818 24.5456 7.57127 24.5456 6.81817C24.5456 6.06506 23.9351 5.45453 23.182 5.45453Z" fill="#40403E"/>
<path fill-rule="evenodd" clip-rule="evenodd" d="M0.891764 4.46735C0 6.21754 0 8.50867 0 13.0909V16.9091C0 21.4913 0 23.7825 0.891764 25.5326C1.67618 27.0721 2.92784 28.3238 4.46735 29.1082C6.21754 30 8.50867 30 13.0909 30H16.9091C21.4913 30 23.7825 30 25.5326 29.1082C27.0721 28.3238 28.3238 27.0721 29.1082 25.5326C30 23.7825 30 21.4913 30 16.9091V13.0909C30 8.50867 30 6.21754 29.1082 4.46735C28.3238 2.92784 27.0721 1.67618 25.5326 0.891764C23.7825 0 21.4913 0 16.9091 0H13.0909C8.50867 0 6.21754 0 4.46735 0.891764C2.92784 1.67618 1.67618 2.92784 0.891764 4.46735ZM16.9091 2.72727H13.0909C10.7548 2.72727 9.16671 2.7294 7.9392 2.82968C6.74351 2.92737 6.13205 3.10444 5.70551 3.32178C4.67917 3.84473 3.84473 4.67917 3.32178 5.70551C3.10444 6.13205 2.92737 6.74351 2.82968 7.9392C2.7294 9.16671 2.72727 10.7548 2.72727 13.0909V16.9091C2.72727 19.2453 2.7294 20.8332 2.82968 22.0608C2.92737 23.2565 3.10444 23.868 3.32178 24.2945C3.84473 25.3208 4.67917 26.1552 5.70551 26.6782C6.13205 26.8955 6.74351 27.0727 7.9392 27.1703C9.16671 27.2705 10.7548 27.2727 13.0909 27.2727H16.9091C19.2453 27.2727 20.8332 27.2705 22.0608 27.1703C23.2565 27.0727 23.868 26.8955 24.2945 26.6782C25.3208 26.1552 26.1552 25.3208 26.6782 24.2945C26.8955 23.868 27.0727 23.2565 27.1703 22.0608C27.2705 20.8332 27.2727 19.2453 27.2727 16.9091V13.0909C27.2727 10.7548 27.2705 9.16671 27.1703 7.9392C27.0727 6.74351 26.8955 6.13205 26.6782 5.70551C26.1552 4.67917 25.3208 3.84473 24.2945 3.32178C23.868 3.10444 23.2565 2.92737 22.0608 2.82968C20.8332 2.7294 19.2453 2.72727 16.9091 2.72727Z" fill="#40403E"/>
</svg>
