<svg width="33" height="27" viewBox="0 0 33 27" fill="none" xmlns="http://www.w3.org/2000/svg">
<path d="M1.93923 3.87842C2.3338 3.35232 3.08061 3.24509 3.60671 3.63966L14.1527 11.5499C15.5437 12.5931 17.4563 12.593 18.8474 11.5499L29.3941 3.63966C29.9201 3.24525 30.6662 3.35187 31.0608 3.87765C31.4554 4.40374 31.3489 5.15056 30.8229 5.54513L20.2769 13.4546C18.039 15.133 14.9618 15.133 12.724 13.4546L2.17722 5.54513C1.65138 5.1506 1.54498 4.40445 1.93923 3.87842Z" fill="#40403E"/>
<path d="M30.6185 4.59313C30.6185 3.37195 29.6288 2.38163 28.4076 2.38145H4.59313C3.37184 2.38145 2.38145 3.37184 2.38145 4.59313V21.6028C2.38145 22.8241 3.37184 23.8145 4.59313 23.8145H28.4076C29.6288 23.8143 30.6185 22.824 30.6185 21.6028V4.59313ZM33 21.6028C33 24.1393 30.944 26.1958 28.4076 26.196H4.59313C2.0566 26.196 0 24.1394 0 21.6028V4.59313C0 2.0566 2.0566 0 4.59313 0H28.4076C30.944 0.000178376 33 2.05671 33 4.59313V21.6028Z" fill="#40403E"/>
</svg>
