<svg width="93" height="91" viewBox="0 0 93 91" fill="none" xmlns="http://www.w3.org/2000/svg">
<path d="M10.677 0.190125C10.0262 0.0842838 7.38637 4.1607e-05 4.81547 4.1607e-05C1.91916 -0.00211842 0.0938823 0.0799639 0.0206126 0.213886C-0.0440371 0.332687 0.0486268 1.06278 0.225336 1.83391C0.4042 2.60504 0.695123 3.89458 0.876143 4.69595C1.05501 5.49732 1.29637 6.49309 1.40843 6.90998C1.52264 7.32686 1.64332 7.86039 1.6778 8.09799C1.73598 8.50624 1.94502 8.53648 5.61497 8.638L9.4918 8.746C10.5283 12.9321 11.0908 15.3125 11.4097 16.7381C11.7287 18.1637 12.0799 19.6693 12.192 20.0862C12.3019 20.503 12.5411 21.4988 12.72 22.3002C12.901 23.1016 13.1941 24.4149 13.3751 25.2162C13.554 26.0176 13.7932 27.0134 13.9031 27.4303C14.013 27.8471 14.2586 28.9164 14.4483 29.8063C14.6379 30.6984 14.8771 31.7654 14.9827 32.1823C15.0862 32.5992 15.3232 33.595 15.5107 34.3963C15.696 35.1977 16.002 36.511 16.1895 37.3124C16.377 38.1138 16.6248 39.2067 16.7412 39.7424C16.8576 40.2781 17.0838 41.2501 17.2455 41.9024C17.4071 42.5548 17.7928 44.2094 18.1053 45.5745C18.4178 46.9396 18.81 48.6417 18.9781 49.3545C19.1462 50.0674 19.519 51.6723 19.8077 52.9186C20.0943 54.1649 20.5792 56.2558 20.8831 57.5627L20.9752 57.9615C21.2616 59.2019 21.6016 60.6746 21.7666 61.3967C21.9498 62.1981 22.245 63.5114 22.4261 64.3127C22.6049 65.1141 22.8441 66.1099 22.954 66.5268C23.0639 66.9437 23.3096 68.0129 23.4992 68.9028C23.6889 69.7949 23.9302 70.862 24.0358 71.2788C24.1414 71.6957 24.3871 72.7649 24.581 73.6549C24.775 74.547 25.0013 75.519 25.0832 75.8149L25.234 76.3549C33.7139 76.3549 33.841 76.3419 33.8022 75.9229C33.7807 75.6853 33.6191 74.9077 33.4424 74.1949C33.2635 73.4821 32.964 72.2185 32.7722 71.3868C32.5825 70.5552 32.339 69.486 32.2334 69.0108C32.1278 68.5356 31.88 67.4664 31.6839 66.6348C31.4878 65.8032 31.2464 64.7836 31.1495 64.3667C31.0701 64.0258 30.8986 63.2817 30.7338 62.567L30.6258 62.0987C30.434 61.2671 30.1948 60.1979 30.0935 59.7227C29.9922 59.2475 29.7897 58.3727 29.6453 57.7787C29.5009 57.1847 29.2962 56.3595 29.1927 55.9426C29.0871 55.5257 28.8501 54.5062 28.6647 53.6746C28.4773 52.843 28.1906 51.5794 28.0247 50.8666C27.8588 50.1538 27.5765 48.9377 27.3955 48.1665C27.2166 47.3954 26.9235 46.1296 26.7468 45.3585C26.5701 44.5874 26.1779 42.8853 25.8762 41.5784C25.5723 40.2716 25.234 38.8136 25.1219 38.3384C25.0099 37.8632 24.7664 36.794 24.5832 35.9624C24.3979 35.1308 24.1544 34.1112 24.0444 33.6943C23.9345 33.2775 23.6889 32.2104 23.4992 31.3183C23.3096 30.4284 23.0704 29.3592 22.9648 28.9423C22.8614 28.5254 22.6178 27.5059 22.4217 26.6742C22.2278 25.8426 21.9239 24.5293 21.7494 23.7582C21.5727 22.9871 21.3378 22.0626 21.2257 21.7062C21.1158 21.3498 21.0253 20.8638 21.0253 20.6262C21.0253 20.3886 20.8917 19.7578 20.7279 19.2221C20.5641 18.6886 20.2732 17.5697 20.0836 16.7381C19.8939 15.9065 19.5039 14.2066 19.2173 12.9581C18.9307 11.7117 18.4307 9.57113 18.1074 8.20599C17.7864 6.84085 17.3381 5.38283 17.114 4.96595C16.8899 4.54906 16.586 4.01554 16.4395 3.77793C16.2929 3.54033 15.7801 2.95712 15.2995 2.48192C14.8211 2.00671 13.8513 1.33926 13.1445 0.997977C12.4398 0.656693 11.33 0.293807 10.677 0.190125Z" fill="#262626"/>
<path d="M82.1171 17.276C82.046 17.1334 72.8184 17.06 55.0828 17.06C40.2715 17.06 28.1109 17.1334 28.057 17.222C28.0032 17.3105 28.0506 17.9196 28.1626 18.572C28.2725 19.2265 28.4514 19.9544 28.5592 20.192C28.6669 20.4296 28.8027 20.9653 28.863 21.38C28.9233 21.7969 29.1001 22.6868 29.2552 23.3586C29.4082 24.0325 29.6108 24.6633 29.7035 24.7626C29.794 24.862 29.8651 25.1881 29.8608 25.4841C29.8543 25.7821 29.9642 26.3654 30.1 26.7801C30.2379 27.197 30.5051 27.7067 30.6969 27.9163C30.8865 28.1236 31.0913 28.2467 31.1516 28.1884C31.2098 28.1279 31.3563 28.1733 31.4749 28.2856C31.6085 28.4131 39.8061 28.4951 53.0786 28.4995C64.8427 28.5038 74.5639 28.4606 74.6824 28.4001C75.5849 27.956 74.0315 25.2681 75.4905 25.2681C75.4905 25.2681 83.3163 32.0686 83.2981 33.9082C83.2797 35.937 75.4905 42.5526 75.4905 42.5526C74.3571 42.5443 75.0527 40.2252 74.7902 39.4163C74.6954 39.1311 72.243 39.0922 54.4794 39.0879L34.2763 39.0814C33.5307 39.8439 33.3131 40.3321 33.3109 40.6583C33.3088 40.9844 33.3993 41.4229 33.5113 41.6303C33.6255 41.8376 33.813 42.544 33.9294 43.1963C34.0458 43.8508 34.2483 44.8703 34.3819 45.4643C34.5155 46.0583 34.7095 46.7388 34.8129 46.9764C34.9185 47.214 35.0478 47.7496 35.1017 48.1644C35.1577 48.5813 35.3646 49.5036 35.5629 50.2164C35.7611 50.9292 35.9745 51.804 36.0391 52.1604C36.1038 52.5168 36.4615 53.126 36.8322 53.5148L37.5088 54.2211L74.6824 54.2124C74.8487 53.4471 74.6066 50.9145 75.5444 50.7996C75.5444 50.7996 79.9009 55.2276 81.2508 56.5885C83.0847 58.4375 83.2873 58.7204 83.2938 59.4505C83.3002 60.1633 83.1235 60.4485 81.7982 61.8265C80.1103 63.5891 75.5983 68.2548 75.5983 68.2548C74.3113 68.2457 74.9582 65.7958 74.7578 65.0666C74.6975 64.8549 71.0556 64.7944 57.4964 64.7901L40.3103 64.7836C39.5194 65.6282 39.4591 65.9414 39.5173 67.1402C39.5539 67.9308 39.6724 68.6738 39.778 68.7926C39.8815 68.9114 40.0453 69.4817 40.1401 70.0606C40.2327 70.6373 40.3836 71.1471 40.4719 71.1946C40.5603 71.24 40.6357 71.6417 40.64 72.0867C40.6443 72.5317 40.7866 73.1408 40.9568 73.4367C41.1249 73.7348 41.2714 74.318 41.2779 74.7327C41.2865 75.1496 41.4115 75.6551 41.5559 75.8581C41.7994 76.2037 43.1894 76.2296 61.7525 76.2339C75.525 76.2383 81.9189 76.167 82.4404 76.005C87.3947 75.1669 92.8382 69.5066 92.8382 64.2307C92.9266 64.1853 92.9998 62.3018 92.9998 60.0445C92.9998 57.7873 92.9266 55.9038 92.8382 55.8606C92.8382 53.6746 87.8269 47.3553 87.8235 46.7063C87.8155 45.1344 90.6152 42.7414 91.3082 41.2523C91.6702 40.4811 92.0516 39.6776 92.1594 39.4703C93.0327 37.7553 92.9998 35.2348 92.9998 33.3682C92.9998 30.666 92.9136 29.5298 92.6443 28.6701C92.3217 27.6319 91.9588 26.3306 91.5 25.3761C89.6395 21.5057 84.9164 17.276 82.1171 17.276Z" fill="#262626"/>
<path d="M34.7052 81.9062C34.119 81.5411 33.4661 81.3511 32.6579 81.3079C32.0071 81.2755 31.2313 81.2992 30.934 81.3597C30.6387 81.4223 30.0526 81.7399 29.6302 82.066C29.21 82.3922 28.6604 82.8912 28.4083 83.1784C28.1562 83.4636 27.7963 84.1353 27.6066 84.671C27.417 85.2045 27.2618 85.885 27.2618 86.183C27.2618 86.479 27.4149 87.1594 27.6002 87.6951C27.7855 88.2286 28.2962 89.0386 28.7359 89.4922C29.1755 89.948 29.8737 90.4664 30.2875 90.6478C30.7077 90.8314 31.6171 90.9697 32.3347 90.961C33.0458 90.9524 33.9186 90.8055 34.2742 90.6349C34.6298 90.4642 35.2913 89.9523 35.7439 89.4965C36.1943 89.0386 36.7029 88.2783 36.8709 87.8031C37.039 87.3279 37.1813 86.5978 37.1856 86.183C37.1877 85.7662 37.0757 85.0857 36.9356 84.671C36.7955 84.2541 36.4313 83.5824 36.1253 83.1784C35.8193 82.7745 35.1793 82.2021 34.7052 81.9062Z" fill="#262626"/>
<path d="M82.4296 81.8911C81.8736 81.5951 80.9685 81.3424 80.2832 81.2927C79.5678 81.2409 78.7575 81.3316 78.236 81.5239C77.7619 81.6967 76.9861 82.2626 76.512 82.7788C76.0379 83.2972 75.5315 84.1051 75.3849 84.5738C75.2384 85.0425 75.1199 85.7662 75.1199 86.183C75.1199 86.5978 75.2384 87.3149 75.3849 87.7728C75.5315 88.2329 75.9409 88.95 76.2965 89.3691C76.6521 89.7903 77.3309 90.326 77.805 90.5636C78.3718 90.8444 79.1131 90.9956 79.96 90.9999C80.8565 91.0042 81.5181 90.8703 82.115 90.5614C82.5891 90.3152 83.2442 89.814 83.5696 89.4447C83.8972 89.0753 84.3001 88.5072 84.4661 88.1811C84.632 87.8527 84.8346 87.2458 84.9143 86.831C84.9962 86.4142 84.9596 85.6862 84.8346 85.211C84.7096 84.7358 84.3325 83.9085 83.9984 83.375C83.617 82.7637 83.0308 82.2107 82.4296 81.8911Z" fill="#262626"/>
</svg>
