<svg width="347" height="114" viewBox="0 0 347 114" fill="none" xmlns="http://www.w3.org/2000/svg">
<path fill-rule="evenodd" clip-rule="evenodd" d="M330.432 47.3518H346.596V52.2226H336.359V55.1991H345.518L345.384 59.9346L336.359 60.0699V63.3171L347 63.4524V68.0525L330.432 68.1878V47.3518ZM6.01993 5.2123e-05C9.23387 5.2123e-05 12.534 0.105586 13.3476 0.238179C14.1639 0.368065 15.5513 0.82267 16.4323 1.25021C17.3159 1.67776 18.5282 2.5139 19.1263 3.10921C19.727 3.70453 20.3682 4.43514 20.5514 4.7328C20.7346 5.03045 21.1144 5.69883 21.3946 6.22108C21.6748 6.74333 22.2351 8.56986 22.6365 10.28C23.0406 11.9902 23.6657 14.6718 24.024 16.2332C24.3823 17.7972 24.8699 19.9268 25.1069 20.9686C25.344 22.0104 25.7077 23.4121 25.9125 24.0805C26.1172 24.7516 26.2842 25.5417 26.2842 25.8394C26.2842 26.137 26.3974 26.7459 26.5348 27.1924C26.6749 27.6388 26.9685 28.797 27.1894 29.763C27.4076 30.7291 27.7875 32.3743 28.0299 33.4161C28.2751 34.4579 28.5795 35.7351 28.7088 36.2574C28.8408 36.7796 29.1399 38.1191 29.3769 39.2339C29.614 40.3515 29.9211 41.6882 30.0585 42.2105C30.1959 42.7327 30.5003 44.01 30.732 45.0518C30.961 46.0936 31.2654 47.433 31.4055 48.0283C31.5456 48.6236 31.9686 50.4502 32.3484 52.0873C32.7256 53.7244 33.2159 55.8567 33.4368 56.8227C33.6577 57.7888 34.0241 59.3745 34.2477 60.3405C34.474 61.3065 34.8269 62.83 35.0344 63.723C35.2418 64.6159 35.6001 66.1989 35.8345 67.2407C36.0662 68.2825 36.3625 69.5597 36.4945 70.082C36.6238 70.6042 36.8797 71.6379 37.0602 72.3821C37.2407 73.1262 37.494 74.2221 37.6206 74.8174C37.7472 75.4127 38.0462 76.7522 38.286 77.794C38.5258 78.8358 38.8194 80.113 38.9407 80.6353C39.0619 81.1575 39.3636 82.4347 39.6088 83.4765C39.8539 84.5183 40.1637 85.8578 40.2957 86.4531C40.4277 87.0484 40.7322 88.3879 40.9692 89.4297C41.209 90.4715 41.5835 92.0545 41.8071 92.9474C42.028 93.8404 42.23 94.8146 42.257 95.1122C42.3055 95.6372 42.1465 95.6534 31.5456 95.6534L31.357 94.9769C31.2547 94.6062 30.9718 93.3885 30.7293 92.2709C30.4869 91.1561 30.1798 89.8166 30.0477 89.2944C29.9157 88.7721 29.614 87.4354 29.3769 86.3178C29.1399 85.2029 28.8328 83.8635 28.6954 83.3412C28.558 82.819 28.2589 81.5715 28.0353 80.5676C27.809 79.5637 27.44 77.9185 27.211 76.9146C26.982 75.9106 26.4836 73.7486 26.1064 72.1115C25.7266 70.4743 25.1204 67.855 24.7621 66.2936C24.4011 64.7323 23.9351 62.7217 23.7249 61.8288C23.5148 60.9358 23.0245 58.8035 22.6338 57.0933C22.2432 55.3832 21.761 53.3104 21.5589 52.4932C21.3569 51.676 21.074 50.4583 20.9285 49.7872C20.7831 49.1161 20.4733 47.7469 20.2389 46.743C20.0045 45.7391 19.622 44.0938 19.3903 43.0899C19.1559 42.086 18.8595 40.8386 18.7302 40.3163C18.5982 39.7941 18.2992 38.4573 18.0621 37.3397C17.8251 36.2249 17.5179 34.8854 17.3805 34.3632C17.2431 33.8409 16.9441 32.5935 16.7205 31.5896C16.4942 30.5856 16.1278 28.9404 15.9015 27.9365C15.6779 26.9326 15.3789 25.6851 15.2415 25.1629C15.1014 24.6406 14.6623 22.7546 14.2636 20.9686C13.8649 19.1827 13.1617 16.2007 11.8659 10.9565L7.0194 10.8212C2.43151 10.694 2.17019 10.6562 2.09746 10.1447C2.05435 9.84708 1.90349 9.17871 1.76071 8.65645C1.62062 8.1342 1.31889 6.88675 1.09529 5.88283C0.86899 4.87892 0.5053 3.26345 0.281698 2.29742C0.0607895 1.33139 -0.0550519 0.416773 0.0257683 0.267945C0.117364 0.100175 2.39919 -0.00265385 6.01993 5.2123e-05ZM127.312 20.0134L145.758 20.1568V25.0276L139.696 25.1629L139.562 40.7222L133.5 40.8575V25.1629H127.304L127.312 20.0134ZM148.336 20.0026L154.379 20.1568L154.513 27.5982H161.787V20.0215L167.849 20.1568V40.7222L161.787 40.8575V33.0102H154.513L154.379 40.7222L148.317 40.8575L148.336 20.0026ZM172.566 20.0188H188.73V24.8896H178.493V27.8661H187.652L187.518 32.6016L178.493 32.7369V35.984L189.134 36.1193V40.7195L172.566 40.8548V20.0188ZM68.8603 21.3718C91.0319 21.3718 102.568 21.4638 102.657 21.6424C106.156 21.6424 112.06 26.9412 114.386 31.7898C114.96 32.9856 115.414 34.6158 115.817 35.9164C116.153 36.9934 116.261 38.4167 116.261 41.8019C116.261 44.1403 116.302 47.2978 115.211 49.4463C115.076 49.706 114.599 50.7126 114.146 51.6787C113.28 53.5441 109.78 56.5421 109.79 58.5112C109.794 59.3243 116.059 67.2407 116.059 69.9792C116.17 70.0333 116.261 72.3929 116.261 75.2206C116.261 78.0484 116.17 80.408 116.059 80.4648C116.059 87.0743 109.254 94.1651 103.061 95.215C102.409 95.418 94.4156 95.5073 77.1982 95.5019C53.9921 95.4965 52.2544 95.464 51.95 95.031C51.7695 94.7767 51.6133 94.1435 51.6025 93.6212C51.5944 93.1017 51.4112 92.3711 51.2011 91.9976C50.9882 91.6269 50.8104 90.8638 50.805 90.3064C50.7997 89.749 50.7054 89.2457 50.5949 89.1888C50.4845 89.1293 50.2959 88.4907 50.18 87.7682C50.0615 87.043 49.8568 86.3286 49.7274 86.1798C49.5954 86.031 49.4473 85.1001 49.4015 84.1097C49.3287 82.6079 49.4042 82.2156 50.3929 81.1575L71.8775 81.1656C88.8282 81.171 93.3811 81.2468 93.4565 81.512C93.7069 82.4255 92.8983 85.4946 94.5072 85.506C94.5072 85.506 100.148 79.6611 102.258 77.453C103.915 75.7266 104.136 75.3694 104.127 74.4765C104.119 73.5619 103.866 73.2074 101.574 70.8911C99.886 69.1863 94.4398 63.6391 94.4398 63.6391C93.2675 63.7831 93.5701 66.9557 93.3622 67.9145L46.8907 67.9253L46.0447 67.0405C45.5814 66.5534 45.1342 65.7903 45.0534 65.3438C44.9725 64.8973 44.7058 63.8014 44.458 62.9085C44.2101 62.0155 43.9515 60.86 43.8815 60.3378C43.8141 59.8182 43.6525 59.1472 43.5205 58.8495C43.3912 58.5518 43.1487 57.6995 42.9817 56.9553C42.8146 56.2112 42.5614 54.934 42.4159 54.114C42.2704 53.2968 42.0361 52.412 41.8933 52.1522C41.7532 51.8924 41.64 51.3431 41.6427 50.9345C41.6454 50.5259 41.9175 49.9144 42.8497 48.9592L68.1059 48.9673C90.3126 48.9727 93.3784 49.0214 93.4969 49.3786C93.8252 50.3921 92.9555 53.2972 94.3725 53.3077C94.3725 53.3077 104.11 45.02 104.133 42.4784C104.156 40.1739 94.3725 31.6545 94.3725 31.6545C92.5485 31.6545 94.4904 35.0218 93.3622 35.5782C93.2141 35.6539 81.0614 35.708 66.3548 35.7026C49.7625 35.6972 39.5145 35.5944 39.3475 35.4347C39.1993 35.294 39.0161 35.2372 38.9433 35.313C38.8679 35.386 38.612 35.2318 38.3749 34.972C38.1351 34.7095 37.8011 34.0709 37.6287 33.5487C37.459 33.0291 37.3216 32.2985 37.3296 31.9251C37.335 31.5544 37.2461 31.1458 37.133 31.0213C37.0171 30.8968 36.7639 30.1067 36.5726 29.2624C36.3787 28.4209 36.1577 27.306 36.0823 26.7837C36.0069 26.2642 35.8372 25.5931 35.7025 25.2955C35.5678 24.9978 35.3442 24.0859 35.2068 23.266C35.0667 22.4488 35.0074 21.6857 35.0748 21.5748C35.1421 21.4638 50.3444 21.3718 68.8603 21.3718ZM172.027 47.1056C172.693 47.0866 173.905 47.2003 174.721 47.3545C175.535 47.5088 176.809 47.9201 177.55 48.2664C178.291 48.6128 179.441 49.3867 181.321 51.0834L180.648 51.814C180.276 52.2172 179.398 53.0208 177.415 54.6552L176.405 53.9003C175.85 53.4836 175.061 52.9965 174.654 52.8179C174.247 52.6366 173.277 52.4932 172.499 52.4959C171.577 52.4986 170.667 52.7097 169.888 53.1047C169.185 53.4592 168.406 54.1492 168.002 54.7743C167.534 55.4968 167.278 56.3275 167.205 57.345C167.119 58.5329 167.232 59.1309 167.744 60.1862C168.167 61.0657 168.759 61.7584 169.468 62.2103C170.063 62.5892 171.087 62.9436 171.758 63.0059C172.423 63.0654 173.425 63.0383 173.98 62.9436C174.535 62.8516 175.535 62.3483 177.415 60.879L178.964 62.1968C179.816 62.922 180.694 63.7175 180.917 63.9665C181.281 64.3751 181.23 64.5104 180.379 65.3709C179.859 65.8958 178.708 66.686 177.819 67.1298C176.89 67.5925 175.343 68.066 174.182 68.2446C172.752 68.4611 171.65 68.4719 170.411 68.2771C169.446 68.1256 167.962 67.6764 167.111 67.2813C166.259 66.8862 164.926 65.9689 164.147 65.2437C163.234 64.394 162.445 63.3144 161.925 62.1995C161.195 60.6409 161.116 60.2106 161.116 57.7671C161.116 55.3263 161.195 54.8934 161.925 53.3347C162.445 52.2226 163.234 51.1402 164.147 50.2905C164.926 49.5653 166.197 48.6696 166.976 48.3016C167.754 47.9309 168.934 47.5169 169.603 47.3843C170.268 47.249 171.359 47.1245 172.027 47.1056ZM193.849 47.0921C194.514 47.0839 195.788 47.2084 196.677 47.3708C197.566 47.5331 199.021 48.0094 199.91 48.4315C200.888 48.8942 202.03 49.7412 202.806 50.5719C203.509 51.3296 204.417 52.6501 204.824 53.5052C205.479 54.8825 205.565 55.375 205.565 57.7671C205.565 60.1592 205.479 60.6544 204.824 62.029C204.417 62.8841 203.509 64.2046 202.806 64.9623C202.049 65.7768 200.866 66.6562 199.91 67.1189C198.991 67.5627 197.362 68.0417 196.138 68.2284C194.39 68.4936 193.601 68.4882 191.963 68.1905C190.85 67.9903 189.274 67.4897 188.461 67.0784C187.644 66.667 186.402 65.7145 185.699 64.9596C184.996 64.2046 184.086 62.8841 183.679 62.029C183.021 60.6517 182.938 60.1619 182.938 57.7671C182.938 55.4373 183.032 54.8555 183.625 53.5729C184.002 52.7557 184.851 51.492 185.511 50.7695C186.168 50.0443 187.254 49.1324 187.922 48.74C188.587 48.3503 189.921 47.8227 190.885 47.571C191.847 47.3167 193.18 47.1029 193.849 47.0921ZM189.894 54.7472C189.342 55.5401 189.104 56.2545 189.026 57.345C188.94 58.5329 189.053 59.1309 189.565 60.1862C189.977 61.0413 190.594 61.7747 191.27 62.2157C192.044 62.7217 192.771 62.9328 193.964 62.9978C195.287 63.0708 195.829 62.9626 196.812 62.4322C197.736 61.9343 198.202 61.4337 198.773 60.3161C199.223 59.4313 199.522 58.4192 199.522 57.7671C199.522 57.115 199.223 56.1029 198.773 55.2208C198.197 54.0924 197.744 53.608 196.812 53.1183C196.001 52.6907 195.152 52.4824 194.253 52.4851C193.415 52.4878 192.48 52.7097 191.78 53.0723C191.16 53.3916 190.311 54.1438 189.894 54.7472ZM318.312 47.1056C318.977 47.0866 320.189 47.2003 321.006 47.3545C321.819 47.5088 323.093 47.9201 323.834 48.2664C324.575 48.6128 325.725 49.3867 327.606 51.0834L326.932 51.814C326.561 52.2172 325.682 53.0208 323.7 54.6552L322.689 53.9003C322.134 53.4836 321.345 52.9965 320.938 52.8179C320.531 52.6366 319.562 52.4932 318.783 52.4959C317.862 52.4986 316.951 52.7097 316.172 53.1047C315.469 53.4592 314.691 54.1492 314.287 54.7743C313.818 55.4968 313.562 56.3275 313.489 57.345C313.403 58.5329 313.516 59.1309 314.028 60.1862C314.451 61.0657 315.044 61.7584 315.752 62.2103C316.348 62.5892 317.371 62.9436 318.042 63.0059C318.708 63.0654 319.71 63.0383 320.265 62.9436C320.82 62.8516 321.819 62.3483 323.7 60.879L325.249 62.1968C326.1 62.922 326.978 63.7175 327.202 63.9665C327.565 64.3751 327.514 64.5104 326.663 65.3709C326.143 65.8958 324.993 66.686 324.104 67.1298C323.174 67.5925 321.628 68.066 320.467 68.2446C319.036 68.4611 317.934 68.4719 316.695 68.2771C315.731 68.1256 314.246 67.6764 313.395 67.2813C312.544 66.8862 311.21 65.9689 310.432 65.2437C309.518 64.394 308.729 63.3144 308.209 62.1995C307.479 60.6409 307.401 60.2106 307.401 57.7671C307.401 55.3263 307.479 54.8934 308.209 53.3347C308.729 52.2226 309.518 51.1402 310.432 50.2905C311.21 49.5653 312.482 48.6696 313.26 48.3016C314.039 47.9309 315.219 47.5169 315.887 47.3843C316.552 47.249 317.643 47.1245 318.312 47.1056ZM129.192 47.3491H145.357V52.2199H135.119V55.1964H144.279L144.144 59.9319L135.119 60.0672V63.3143L145.761 63.4496V68.0498L129.192 68.1851V47.3491ZM208.935 47.3491L213.919 47.3518L217.286 52.9261C219.137 55.9947 220.746 58.5518 220.856 58.6087C220.966 58.6682 222.545 56.1868 227.669 47.4844L232.912 47.3491L232.777 68.0498L227.254 68.1851L226.85 58.4463L222.27 66.0176L219.307 65.9987L214.727 58.4517L214.592 68.1851H208.935V47.3491ZM237.491 47.3491L242.475 47.3518L245.843 52.9261C247.694 55.9947 249.302 58.5518 249.412 58.6087C249.523 58.6682 251.102 56.1868 256.226 47.4844L261.468 47.3491L261.333 68.0498L255.811 68.1851L255.407 58.4463L250.827 66.0176L247.863 65.9987L243.284 58.4517L243.149 68.1851H237.491V47.3491ZM265.778 47.3491H281.943V52.2199H271.705V55.1964H280.865L280.73 59.9319L271.705 60.0672V63.3143L282.347 63.4496V68.0498L265.778 68.1851V47.3491ZM286.035 47.2977L292.137 47.4087C297.562 47.5061 298.406 47.5818 299.723 48.0933C300.537 48.4099 301.69 49.1351 302.285 49.7006C302.878 50.2689 303.605 51.2187 303.899 51.814C304.305 52.6366 304.435 53.4484 304.435 55.1964C304.437 57.2151 304.346 57.6535 303.697 58.7818C303.29 59.4881 302.5 60.3973 301.945 60.8005C301.391 61.2037 300.906 61.569 300.868 61.6123C300.83 61.6556 301.708 63.0302 302.821 64.6673C303.931 66.3044 304.842 67.7657 304.842 67.9145C304.842 68.0796 303.613 68.1797 298.511 68.1607L294.874 62.7732H292.18L292.045 68.0498L285.984 68.1851L286.035 47.2977ZM292.18 57.9024C294.998 57.9105 296.21 57.7888 296.692 57.6372C297.236 57.4668 297.719 57.0554 297.972 56.5494C298.193 56.1029 298.376 55.4346 298.376 55.0611C298.376 54.6904 298.193 54.0193 297.972 53.5729C297.719 53.0668 297.236 52.6582 296.692 52.4878C296.21 52.3362 294.998 52.2145 293.998 52.2172L292.18 52.2199V57.9024ZM157.749 54.9258V59.7966L148.993 59.6613L148.91 57.6589C148.864 56.5548 148.891 55.4887 148.969 55.2911C149.082 55.007 150.068 54.9258 157.749 54.9258ZM162.059 74.4224C162.725 74.4142 163.999 74.5387 164.888 74.7011C165.777 74.8634 167.232 75.3397 168.121 75.7618C169.099 76.2245 170.241 77.0715 171.017 77.9022C171.72 78.6599 172.628 79.9804 173.035 80.8355C173.689 82.2128 173.773 82.7053 173.773 85.0974C173.773 87.4895 173.689 87.9847 173.035 89.3593C172.628 90.2144 171.72 91.5349 171.017 92.2926C170.257 93.1071 169.077 93.9865 168.121 94.4492C167.202 94.893 165.572 95.372 164.349 95.5587C162.601 95.8239 161.809 95.8185 160.174 95.5208C159.061 95.3206 157.485 94.82 156.671 94.4087C155.855 93.9974 154.613 93.0449 153.91 92.2899C153.204 91.5349 152.296 90.2144 151.889 89.3593C151.232 87.982 151.149 87.4922 151.149 85.0974C151.149 82.7676 151.243 82.1858 151.833 80.9032C152.21 80.086 153.059 78.8223 153.719 78.0998C154.379 77.3746 155.464 76.4627 156.133 76.0703C156.798 75.6806 158.131 75.153 159.096 74.9013C160.058 74.647 161.391 74.4332 162.059 74.4224ZM158.105 82.0775C157.552 82.8704 157.315 83.5848 157.234 84.6753C157.151 85.8632 157.264 86.4612 157.773 87.5165C158.188 88.3716 158.802 89.1049 159.481 89.546C160.254 90.052 160.982 90.2631 162.175 90.3281C163.498 90.4011 164.039 90.2929 165.023 89.7625C165.947 89.2646 166.41 88.764 166.984 87.6464C167.434 86.7616 167.733 85.7495 167.733 85.0974C167.733 84.4453 167.434 83.4332 166.984 82.5511C166.405 81.4227 165.955 80.9383 165.023 80.4486C164.209 80.021 163.363 79.8127 162.463 79.8154C161.626 79.8181 160.688 80.04 159.99 80.4026C159.371 80.7219 158.522 81.4741 158.105 82.0775ZM186.171 74.5441C187.515 74.6064 189.374 74.8986 190.346 75.199C191.308 75.4966 192.313 75.8971 192.58 76.0892C193.04 76.4221 193.022 76.5438 192.216 78.4678C191.75 79.5854 191.289 80.592 191.192 80.7056C191.098 80.8193 190.352 80.6055 189.538 80.2294C188.722 79.8532 187.388 79.4717 186.575 79.377C185.758 79.2823 184.638 79.285 184.083 79.3797C183.434 79.4879 182.903 79.7964 182.601 80.2321C182.146 80.8869 182.149 80.9356 182.668 81.4498C183.011 81.7907 184.482 82.2994 186.709 82.8515C189.172 83.463 190.57 83.9663 191.424 84.5454C192.176 85.0568 192.865 85.8307 193.242 86.5857C193.603 87.3082 193.851 88.2986 193.854 89.0211C193.854 89.7625 193.598 90.7691 193.199 91.5917C192.838 92.3359 192.079 93.3046 191.51 93.7457C190.944 94.1868 189.875 94.7902 189.134 95.0825C188.065 95.5073 187.143 95.6182 184.689 95.6182C182.547 95.6182 181.049 95.4694 179.84 95.1339C178.875 94.8687 177.633 94.4195 177.078 94.1354C176.521 93.8539 176.065 93.4697 176.065 93.283C176.065 93.0963 176.459 92.0572 176.941 90.9721C177.566 89.565 177.932 89.0346 178.223 89.1239C178.444 89.1943 179.414 89.5812 180.379 89.9817C181.567 90.4796 182.776 90.7502 184.15 90.8287C185.513 90.9071 186.389 90.8287 186.844 90.5851C187.27 90.3578 187.542 89.9573 187.585 89.4892C187.628 89.0102 187.485 88.6639 187.181 88.5042C186.92 88.3689 185.222 87.8819 183.409 87.4218C181.594 86.9618 179.775 86.4152 179.368 86.2041C178.959 85.9931 178.24 85.414 177.768 84.9188C177.294 84.4209 176.779 83.6795 176.623 83.2709C176.464 82.8623 176.338 81.8881 176.34 81.1061C176.343 80.1807 176.553 79.2688 176.946 78.4894C177.278 77.8319 177.914 76.9903 178.358 76.6196C178.803 76.2489 179.71 75.7077 180.379 75.4155C181.044 75.1232 182.076 74.7823 182.668 74.6578C183.261 74.5333 184.837 74.4819 186.171 74.5441ZM205.837 74.5441C207.181 74.6064 209.04 74.8986 210.013 75.199C210.974 75.4966 211.979 75.8971 212.246 76.0892C212.707 76.4221 212.688 76.5438 211.882 78.4678C211.416 79.5854 210.956 80.592 210.859 80.7056C210.764 80.8193 210.018 80.6055 209.204 80.2294C208.388 79.8532 207.055 79.4717 206.241 79.377C205.425 79.2823 204.304 79.285 203.749 79.3797C203.1 79.4879 202.569 79.7964 202.267 80.2321C201.812 80.8869 201.815 80.9356 202.335 81.4498C202.677 81.7907 204.148 82.2994 206.376 82.8515C208.838 83.463 210.236 83.9663 211.09 84.5454C211.842 85.0568 212.531 85.8307 212.909 86.5857C213.27 87.3082 213.518 88.2986 213.52 89.0211C213.52 89.7625 213.264 90.7691 212.866 91.5917C212.505 92.3359 211.745 93.3046 211.176 93.7457C210.611 94.1868 209.541 94.7902 208.8 95.0825C207.731 95.5073 206.809 95.6182 204.355 95.6182C202.213 95.6182 200.716 95.4694 199.506 95.1339C198.542 94.8687 197.3 94.4195 196.745 94.1354C196.187 93.8539 195.732 93.4697 195.732 93.283C195.732 93.0963 196.125 92.0572 196.607 90.9721C197.232 89.565 197.599 89.0346 197.89 89.1239C198.11 89.1943 199.08 89.5812 200.045 89.9817C201.233 90.4796 202.442 90.7502 203.816 90.8287C205.18 90.9071 206.055 90.8287 206.51 90.5851C206.936 90.3578 207.208 89.9573 207.251 89.4892C207.294 89.0102 207.152 88.6639 206.847 88.5042C206.586 88.3689 204.889 87.8819 203.076 87.4218C201.26 86.9618 199.441 86.4152 199.035 86.2041C198.625 85.9931 197.906 85.414 197.434 84.9188C196.96 84.4209 196.446 83.6795 196.289 83.2709C196.13 82.8623 196.004 81.8881 196.006 81.1061C196.009 80.1807 196.219 79.2688 196.613 78.4894C196.944 77.8319 197.58 76.9903 198.024 76.6196C198.469 76.2489 199.377 75.7077 200.045 75.4155C200.71 75.1232 201.742 74.7823 202.335 74.6578C202.927 74.5333 204.503 74.4819 205.837 74.5441ZM129.238 74.6334L136.016 74.7363C141.911 74.8256 142.953 74.9067 144.01 75.3505C144.675 75.6319 145.559 76.1136 145.973 76.4221C146.388 76.7278 146.962 77.4666 147.25 78.0619C147.536 78.6572 147.773 79.6611 147.776 80.2943C147.778 80.9275 147.598 81.8719 147.377 82.3914C147.153 82.9137 146.647 83.6741 146.251 84.0827C145.717 84.6374 145.631 84.8566 145.914 84.9378C146.127 84.9973 146.739 85.4844 147.275 86.0201C147.813 86.5532 148.387 87.4787 148.554 88.074C148.719 88.6693 148.853 89.5217 148.851 89.9682C148.848 90.4146 148.63 91.267 148.363 91.8623C148.099 92.4576 147.466 93.2721 146.957 93.6753C146.445 94.0758 145.483 94.6143 144.818 94.8714C143.802 95.261 142.431 95.353 129.192 95.5154L129.238 74.6334ZM135.117 82.8C140.464 82.6729 140.866 82.5971 141.205 82.1236C141.415 81.8259 141.59 81.3388 141.59 81.0412C141.59 80.7435 141.415 80.2564 141.205 79.9588C140.868 79.4879 140.448 79.4041 137.991 79.3256L135.165 79.2336L135.117 82.8ZM135.117 90.918C141.189 90.918 141.369 90.8855 142 90.2415C142.363 89.868 142.66 89.381 142.66 89.1591C142.66 88.9345 142.358 88.4474 141.986 88.0767C141.348 87.4327 141.162 87.4002 138.215 87.4002H135.117V90.918ZM40.8265 101.858C41.8367 101.912 42.653 102.15 43.3858 102.608C43.9784 102.978 44.7786 103.696 45.1611 104.202C45.5437 104.708 45.9989 105.549 46.1741 106.071C46.3492 106.591 46.4893 107.443 46.4866 107.966C46.4812 108.485 46.3034 109.4 46.0932 109.995C45.8831 110.59 45.2473 111.543 44.6843 112.117C44.1185 112.687 43.2915 113.329 42.847 113.543C42.4025 113.756 41.3114 113.94 40.4224 113.951C39.5253 113.962 38.3884 113.789 37.8631 113.559C37.3458 113.332 36.4729 112.682 35.9234 112.111C35.3738 111.543 34.7353 110.528 34.5036 109.86C34.2719 109.189 34.0807 108.336 34.0807 107.966C34.0807 107.592 34.2746 106.74 34.5117 106.071C34.7488 105.4 35.1987 104.559 35.5139 104.202C35.8291 103.842 36.5161 103.217 37.0414 102.808C37.5694 102.399 38.3022 102.002 38.6713 101.923C39.043 101.847 40.0129 101.818 40.8265 101.858ZM100.364 101.839C101.221 101.901 102.352 102.218 103.047 102.589C103.799 102.989 104.532 103.682 105.008 104.448C105.426 105.116 105.897 106.153 106.054 106.748C106.21 107.343 106.256 108.255 106.153 108.777C106.054 109.297 105.8 110.057 105.593 110.469C105.386 110.877 104.882 111.589 104.472 112.052C104.066 112.514 103.247 113.142 102.654 113.451C101.908 113.838 101.081 114.005 99.9598 114C98.9011 113.994 97.9744 113.805 97.2658 113.453C96.6732 113.156 95.8245 112.485 95.38 111.957C94.9355 111.432 94.4237 110.534 94.2405 109.957C94.0573 109.383 93.9091 108.485 93.9091 107.966C93.9091 107.443 94.0573 106.537 94.2405 105.95C94.4237 105.362 95.0568 104.35 95.6494 103.701C96.2421 103.054 97.212 102.345 97.8046 102.129C98.4566 101.888 99.4695 101.774 100.364 101.839Z" fill="#262626"/>
</svg>
