<svg width="141" height="46" viewBox="0 0 141 46" fill="none" xmlns="http://www.w3.org/2000/svg">
<path fill-rule="evenodd" clip-rule="evenodd" d="M133.924 19.1069H140.476V21.0723H136.327V22.2733H140.039L139.984 24.1841L136.327 24.2387V25.549L140.639 25.6036V27.4598L133.924 27.5144V19.1069ZM2.43988 2.10321e-05C3.7425 2.10321e-05 5.08006 0.042605 5.4098 0.0961072C5.74064 0.148518 6.30296 0.331955 6.66001 0.504472C7.01815 0.676989 7.50949 1.01438 7.75189 1.25459C7.99538 1.49481 8.25525 1.78962 8.3295 1.90972C8.40375 2.02983 8.5577 2.29953 8.67126 2.51026C8.78481 2.72099 9.01193 3.45801 9.17462 4.14808C9.3384 4.83815 9.59172 5.92021 9.73694 6.55023C9.88216 7.18133 10.0798 8.04065 10.1759 8.46102C10.272 8.8814 10.4194 9.44699 10.5023 9.71669C10.5853 9.98747 10.653 10.3063 10.653 10.4264C10.653 10.5465 10.6989 10.7922 10.7546 10.9724C10.8113 11.1525 10.9304 11.6198 11.0199 12.0096C11.1083 12.3994 11.2623 13.0633 11.3606 13.4837C11.4599 13.9041 11.5833 14.4194 11.6357 14.6302C11.6892 14.8409 11.8104 15.3814 11.9065 15.8312C12.0026 16.2822 12.1271 16.8216 12.1828 17.0323C12.2384 17.243 12.3618 17.7584 12.4557 18.1788C12.5485 18.5992 12.6719 19.1396 12.7287 19.3798C12.7855 19.6201 12.9569 20.3571 13.1109 21.0177C13.2637 21.6783 13.4624 22.5387 13.552 22.9285C13.6415 23.3183 13.79 23.9581 13.8806 24.3479C13.9724 24.7377 14.1154 25.3524 14.1995 25.7128C14.2835 26.0731 14.4288 26.7118 14.5238 27.1322C14.6177 27.5526 14.7378 28.068 14.7913 28.2787C14.8437 28.4894 14.9474 28.9065 15.0206 29.2068C15.0937 29.5071 15.1964 29.9493 15.2477 30.1895C15.299 30.4297 15.4202 30.9702 15.5174 31.3906C15.6145 31.8109 15.7336 32.3263 15.7827 32.537C15.8318 32.7478 15.9541 33.2631 16.0535 33.6835C16.1528 34.1039 16.2784 34.6444 16.3319 34.8846C16.3854 35.1248 16.5088 35.6653 16.6049 36.0857C16.7021 36.506 16.8538 37.1448 16.9445 37.5051C17.034 37.8654 17.1159 38.2585 17.1268 38.3786C17.1465 38.5904 17.082 38.597 12.7855 38.597L12.709 38.324C12.6676 38.1744 12.5529 37.6831 12.4546 37.2321C12.3564 36.7823 12.2319 36.2418 12.1784 36.0311C12.1249 35.8203 12.0026 35.2809 11.9065 34.83C11.8104 34.3801 11.6859 33.8397 11.6303 33.6289C11.5746 33.4182 11.4534 32.9148 11.3628 32.5097C11.271 32.1046 11.1214 31.4408 11.0286 31.0357C10.9358 30.6306 10.7338 29.7582 10.581 29.0976C10.427 28.437 10.1813 27.3801 10.0361 26.7501C9.8898 26.12 9.7009 25.3088 9.61574 24.9485C9.53057 24.5881 9.33185 23.7277 9.17352 23.0377C9.0152 22.3476 8.81975 21.5112 8.73786 21.1815C8.65597 20.8517 8.54132 20.3604 8.48236 20.0896C8.4234 19.8188 8.29783 19.2663 8.20284 18.8612C8.10785 18.4561 7.9528 17.7923 7.8589 17.3872C7.7639 16.9821 7.6438 16.4787 7.59139 16.268C7.53788 16.0572 7.41669 15.5179 7.3206 15.0669C7.22451 14.6171 7.10004 14.0766 7.04435 13.8658C6.98867 13.6551 6.86747 13.1517 6.77684 12.7467C6.68512 12.3416 6.53663 11.6777 6.44491 11.2726C6.35428 10.8675 6.23308 10.3642 6.1774 10.1534C6.12062 9.94271 5.94264 9.18166 5.78104 8.46102C5.61945 7.74038 5.33446 6.53712 4.80927 4.42105L2.84497 4.36646C0.985495 4.31514 0.879582 4.29986 0.850101 4.09349C0.832631 3.97338 0.771486 3.70369 0.713616 3.49295C0.656838 3.28222 0.534547 2.77886 0.443921 2.37377C0.352203 1.96869 0.204799 1.31683 0.114172 0.92703C0.0246381 0.537228 -0.0223126 0.168172 0.0104439 0.108118C0.0475679 0.0404213 0.972393 -0.00107085 2.43988 2.10321e-05ZM51.5997 8.07559L59.0758 8.13346V10.0988L56.6191 10.1534L56.5645 16.4318L54.1078 16.4864V10.1534H51.5965L51.5997 8.07559ZM60.1208 8.07122L62.5699 8.13346L62.6245 11.1361H65.5726V8.07886L68.0293 8.13346V16.4318L65.5726 16.4864V13.3199H62.6245L62.5699 16.4318L60.1131 16.4864L60.1208 8.07122ZM69.9412 8.07777H76.4925V10.0432H72.3433V11.2442H76.0557L76.0011 13.155L72.3433 13.2096V14.5199L76.6563 14.5745V16.4307L69.9412 16.4853V8.07777ZM27.9091 8.62371C36.8953 8.62371 41.5708 8.66084 41.6068 8.7329C43.0251 8.7329 45.4182 10.871 46.3609 12.8275C46.5934 13.31 46.7772 13.9678 46.9407 14.4926C47.0771 14.9271 47.1208 15.5015 47.1208 16.8674C47.1208 17.811 47.1375 19.0851 46.695 19.952C46.6404 20.0568 46.4471 20.463 46.2637 20.8528C45.9126 21.6055 44.494 22.8152 44.4981 23.6098C44.4998 23.9379 47.0389 27.1322 47.0389 28.2372C47.0837 28.259 47.1208 29.2112 47.1208 30.3522C47.1208 31.4932 47.0837 32.4453 47.0389 32.4682C47.0389 35.1352 44.2808 37.9965 41.7706 38.4201C41.5064 38.502 38.2667 38.538 31.2885 38.5358C21.883 38.5337 21.1788 38.5206 21.0554 38.3459C20.9822 38.2432 20.9189 37.9877 20.9145 37.777C20.9113 37.5673 20.837 37.2725 20.7519 37.1218C20.6656 36.9723 20.5935 36.6644 20.5913 36.4394C20.5892 36.2145 20.5509 36.0114 20.5062 35.9885C20.4614 35.9645 20.385 35.7068 20.338 35.4152C20.29 35.1226 20.207 34.8344 20.1546 34.7743C20.1011 34.7142 20.041 34.3386 20.0225 33.939C19.993 33.333 20.0236 33.1747 20.4243 32.7478L29.1321 32.751C36.0022 32.7532 37.8475 32.7838 37.878 32.8908C37.9795 33.2594 37.6518 34.4978 38.3039 34.5024C38.3039 34.5024 40.59 32.1439 41.4452 31.253C42.1167 30.5564 42.2063 30.4122 42.203 30.0519C42.1997 29.6829 42.0971 29.5398 41.1679 28.6052C40.4839 27.9173 38.2766 25.6789 38.2766 25.6789C37.8014 25.737 37.9241 27.0172 37.8398 27.4041L19.0048 27.4085L18.662 27.0514C18.4742 26.8549 18.2929 26.547 18.2602 26.3668C18.2274 26.1866 18.1193 25.7444 18.0189 25.3841C17.9184 25.0238 17.8136 24.5576 17.7852 24.3468C17.7579 24.1372 17.6924 23.8664 17.6389 23.7463C17.5865 23.6262 17.4882 23.2822 17.4205 22.982C17.3528 22.6817 17.2502 22.1663 17.1912 21.8355C17.1323 21.5057 17.0373 21.1487 16.9794 21.0439C16.9226 20.9391 16.8768 20.7174 16.8779 20.5525C16.8789 20.3877 16.9892 20.1409 17.367 19.7555L27.6034 19.7587C36.6038 19.7609 37.8464 19.7806 37.8944 19.9247C38.0274 20.3336 37.675 21.5059 38.2493 21.5101C38.2493 21.5101 42.1959 18.166 42.2052 17.1404C42.2144 16.2105 38.2493 12.7729 38.2493 12.7729C37.51 12.7729 38.2971 14.1316 37.8398 14.3561C37.7798 14.3867 32.8543 14.4085 26.8937 14.4063C20.1688 14.4041 16.0153 14.3626 15.9476 14.2982C15.8875 14.2414 15.8133 14.2185 15.7838 14.2491C15.7532 14.2786 15.6495 14.2163 15.5534 14.1115C15.4562 14.0056 15.3208 13.7479 15.2509 13.5372C15.1822 13.3275 15.1265 13.0327 15.1297 12.8821C15.1319 12.7325 15.0959 12.5676 15.05 12.5174C15.0031 12.4671 14.9005 12.1483 14.8229 11.8076C14.7443 11.4681 14.6548 11.0182 14.6242 10.8075C14.5936 10.5978 14.5248 10.327 14.4702 10.2069C14.4157 10.0868 14.325 9.71887 14.2693 9.38803C14.2126 9.05828 14.1885 8.75037 14.2158 8.7056C14.2431 8.66084 20.4046 8.62371 27.9091 8.62371ZM69.7228 19.0075C69.9925 18.9999 70.4838 19.0457 70.8147 19.108C71.1444 19.1702 71.6609 19.3362 71.9612 19.4759C72.2614 19.6157 72.7277 19.928 73.4898 20.6126L73.2168 20.9074C73.0661 21.0701 72.7102 21.3944 71.9066 22.0539L71.4971 21.7492C71.2722 21.5811 70.9523 21.3845 70.7874 21.3125C70.6225 21.2393 70.2294 21.1815 69.9139 21.1825C69.5405 21.1836 69.1714 21.2688 68.8558 21.4282C68.5709 21.5713 68.2553 21.8497 68.0915 22.1019C67.9015 22.3934 67.7978 22.7287 67.7683 23.1392C67.7334 23.6185 67.7792 23.8598 67.9867 24.2857C68.1581 24.6405 68.3983 24.9201 68.6855 25.1024C68.9268 25.2553 69.3417 25.3983 69.6136 25.4234C69.8833 25.4474 70.2895 25.4365 70.5144 25.3983C70.7393 25.3612 71.1444 25.1581 71.9066 24.5652L72.5344 25.0969C72.8794 25.3896 73.2354 25.7106 73.326 25.811C73.4734 25.9759 73.4527 26.0305 73.1076 26.3777C72.8969 26.5896 72.4307 26.9084 72.0704 27.0874C71.6936 27.2742 71.0669 27.4652 70.5963 27.5373C70.0165 27.6247 69.5699 27.629 69.0677 27.5504C68.6768 27.4893 68.0751 27.308 67.7301 27.1486C67.3851 26.9892 66.8446 26.619 66.529 26.3264C66.1589 25.9836 65.839 25.5479 65.6282 25.098C65.3323 24.4691 65.3007 24.2955 65.3007 23.3095C65.3007 22.3247 65.3323 22.15 65.6282 21.521C65.839 21.0723 66.1589 20.6355 66.529 20.2927C66.8446 20 67.36 19.6386 67.6755 19.4901C67.9911 19.3405 68.4693 19.1735 68.7401 19.12C69.0098 19.0654 69.452 19.0152 69.7228 19.0075ZM78.5671 19.0021C78.8367 18.9988 79.3532 19.049 79.7135 19.1145C80.0739 19.18 80.6635 19.3722 81.0238 19.5425C81.4201 19.7292 81.8831 20.071 82.1976 20.4062C82.4825 20.7119 82.8505 21.2448 83.0154 21.5898C83.2807 22.1456 83.3157 22.3443 83.3157 23.3095C83.3157 24.2748 83.2807 24.4746 83.0154 25.0292C82.8505 25.3743 82.4825 25.9071 82.1976 26.2129C81.8907 26.5415 81.4114 26.8964 81.0238 27.0831C80.6515 27.2621 79.9909 27.4554 79.4952 27.5308C78.7865 27.6378 78.4666 27.6356 77.8027 27.5155C77.3518 27.4347 76.713 27.2327 76.3833 27.0667C76.0524 26.9007 75.5491 26.5164 75.2641 26.2118C74.9791 25.9071 74.6101 25.3743 74.4452 25.0292C74.1788 24.4735 74.1449 24.2759 74.1449 23.3095C74.1449 22.3694 74.1831 22.1347 74.4234 21.6171C74.5762 21.2874 74.9202 20.7775 75.1877 20.4859C75.4541 20.1933 75.8941 19.8253 76.1649 19.667C76.4346 19.5098 76.9751 19.2969 77.366 19.1953C77.7558 19.0927 78.2963 19.0064 78.5671 19.0021ZM76.9642 22.091C76.7403 22.4109 76.6442 22.6992 76.6126 23.1392C76.5776 23.6185 76.6235 23.8598 76.831 24.2857C76.998 24.6307 77.2481 24.9266 77.5221 25.1046C77.8355 25.3088 78.1303 25.3939 78.614 25.4201C79.1501 25.4496 79.3696 25.406 79.7681 25.1919C80.1426 24.991 80.3315 24.789 80.563 24.3381C80.7454 23.981 80.8666 23.5727 80.8666 23.3095C80.8666 23.0464 80.7454 22.638 80.563 22.2821C80.3293 21.8268 80.1459 21.6313 79.7681 21.4337C79.4395 21.2612 79.0955 21.1771 78.7308 21.1782C78.3913 21.1793 78.0124 21.2688 77.7285 21.4151C77.4774 21.544 77.1334 21.8475 76.9642 22.091ZM129.012 19.0075C129.282 18.9999 129.773 19.0457 130.104 19.108C130.434 19.1702 130.95 19.3362 131.25 19.4759C131.551 19.6157 132.017 19.928 132.779 20.6126L132.506 20.9074C132.355 21.0701 131.999 21.3944 131.196 22.0539L130.786 21.7492C130.561 21.5811 130.242 21.3845 130.077 21.3125C129.912 21.2393 129.519 21.1815 129.203 21.1825C128.83 21.1836 128.461 21.2688 128.145 21.4282C127.86 21.5713 127.545 21.8497 127.381 22.1019C127.191 22.3934 127.087 22.7287 127.058 23.1392C127.023 23.6185 127.068 23.8598 127.276 24.2857C127.447 24.6405 127.688 24.9201 127.975 25.1024C128.216 25.2553 128.631 25.3983 128.903 25.4234C129.173 25.4474 129.579 25.4365 129.804 25.3983C130.029 25.3612 130.434 25.1581 131.196 24.5652L131.824 25.0969C132.169 25.3896 132.525 25.7106 132.615 25.811C132.763 25.9759 132.742 26.0305 132.397 26.3777C132.186 26.5896 131.72 26.9084 131.36 27.0874C130.983 27.2742 130.356 27.4652 129.886 27.5373C129.306 27.6247 128.859 27.629 128.357 27.5504C127.966 27.4893 127.364 27.308 127.019 27.1486C126.674 26.9892 126.134 26.619 125.818 26.3264C125.448 25.9836 125.128 25.5479 124.917 25.098C124.622 24.4691 124.59 24.2955 124.59 23.3095C124.59 22.3247 124.622 22.15 124.917 21.521C125.128 21.0723 125.448 20.6355 125.818 20.2927C126.134 20 126.649 19.6386 126.965 19.4901C127.28 19.3405 127.759 19.1735 128.029 19.12C128.299 19.0654 128.741 19.0152 129.012 19.0075ZM52.3619 19.1058H58.9132V21.0712H54.764V22.2722H58.4764L58.4218 24.183L54.764 24.2376V25.5479L59.0769 25.6025V27.4587L52.3619 27.5133V19.1058ZM84.6816 19.1058L86.7016 19.1069L88.0664 21.3562C88.8166 22.5944 89.4684 23.6262 89.5132 23.6491C89.5579 23.6731 90.1978 22.6719 92.2745 19.1604L94.3994 19.1058L94.3448 27.4587L92.1064 27.5133L91.9426 23.5836L90.0864 26.6387L88.8853 26.631L87.0291 23.5858L86.9745 27.5133H84.6816V19.1058ZM96.2556 19.1058L98.2755 19.1069L99.6404 21.3562C100.391 22.5944 101.042 23.6262 101.087 23.6491C101.132 23.6731 101.772 22.6719 103.849 19.1604L105.973 19.1058L105.919 27.4587L103.68 27.5133L103.517 23.5836L101.66 26.6387L100.459 26.631L98.6031 23.5858L98.5485 27.5133H96.2556V19.1058ZM107.72 19.1058H114.272V21.0712H110.122V22.2722H113.835L113.78 24.183L110.122 24.2376V25.5479L114.435 25.6025V27.4587L107.72 27.5133V19.1058ZM115.93 19.085L118.403 19.1298C120.602 19.1691 120.944 19.1997 121.478 19.4061C121.808 19.5338 122.275 19.8264 122.516 20.0546C122.757 20.2839 123.051 20.6672 123.17 20.9074C123.335 21.2393 123.388 21.5669 123.388 22.2722C123.389 23.0868 123.352 23.2637 123.089 23.719C122.924 24.004 122.604 24.3708 122.379 24.5335C122.154 24.6962 121.957 24.8436 121.942 24.8611C121.927 24.8786 122.283 25.4332 122.734 26.0938C123.184 26.7544 123.553 27.344 123.553 27.4041C123.553 27.4707 123.055 27.5111 120.987 27.5035L119.513 25.3295H118.421L118.366 27.4587L115.909 27.5133L115.93 19.085ZM118.421 23.3641C119.563 23.3674 120.054 23.3183 120.25 23.2571C120.47 23.1883 120.666 23.0224 120.768 22.8182C120.858 22.638 120.932 22.3683 120.932 22.2177C120.932 22.0681 120.858 21.7973 120.768 21.6171C120.666 21.4129 120.47 21.2481 120.25 21.1793C120.054 21.1181 119.563 21.069 119.158 21.0701L118.421 21.0712V23.3641ZM63.9358 22.1631V24.1284L60.3872 24.0739L60.3534 23.2659C60.3348 22.8204 60.3457 22.3902 60.3774 22.3105C60.4232 22.1958 60.8229 22.1631 63.9358 22.1631ZM65.6828 30.0301C65.9525 30.0268 66.469 30.077 66.8293 30.1425C67.1896 30.2081 67.7793 30.4002 68.1396 30.5706C68.5359 30.7573 68.9989 31.099 69.3133 31.4342C69.5983 31.74 69.9663 32.2728 70.1312 32.6178C70.3965 33.1736 70.4303 33.3723 70.4303 34.3376C70.4303 35.3028 70.3965 35.5026 70.1312 36.0573C69.9663 36.4023 69.5983 36.9351 69.3133 37.2409C69.0054 37.5695 68.5272 37.9244 68.1396 38.1111C67.7672 38.2902 67.1067 38.4834 66.6109 38.5588C65.9023 38.6658 65.5813 38.6636 64.9185 38.5435C64.4676 38.4627 63.8288 38.2607 63.4991 38.0947C63.1682 37.9288 62.6649 37.5444 62.3799 37.2398C62.0938 36.9351 61.7258 36.4023 61.561 36.0573C61.2946 35.5015 61.2607 35.3039 61.2607 34.3376C61.2607 33.3974 61.2989 33.1627 61.538 32.6451C61.6909 32.3154 62.0349 31.8055 62.3024 31.5139C62.5699 31.2213 63.0099 30.8534 63.2807 30.695C63.5504 30.5378 64.0909 30.3249 64.4818 30.2233C64.8716 30.1207 65.412 30.0344 65.6828 30.0301ZM64.0799 33.119C63.8561 33.4389 63.76 33.7272 63.7273 34.1672C63.6934 34.6466 63.7393 34.8879 63.9456 35.3137C64.1138 35.6587 64.3627 35.9546 64.6379 36.1326C64.9513 36.3368 65.2461 36.422 65.7298 36.4482C66.2659 36.4776 66.4854 36.434 66.8839 36.22C67.2584 36.0191 67.4462 35.8171 67.6788 35.3661C67.8611 35.0091 67.9823 34.6007 67.9823 34.3376C67.9823 34.0744 67.8611 33.666 67.6788 33.3101C67.444 32.8548 67.2617 32.6593 66.8839 32.4617C66.5542 32.2892 66.2113 32.2051 65.8466 32.2062C65.507 32.2073 65.1271 32.2968 64.8443 32.4431C64.5931 32.572 64.2492 32.8755 64.0799 33.119ZM75.4552 30.0792C76 30.1043 76.7534 30.2222 77.1476 30.3434C77.5374 30.4636 77.9447 30.6252 78.0528 30.7027C78.2395 30.837 78.2318 30.8861 77.9054 31.6624C77.7165 32.1134 77.5298 32.5196 77.4905 32.5654C77.4522 32.6113 77.1498 32.525 76.82 32.3733C76.4892 32.2215 75.9487 32.0675 75.619 32.0293C75.2881 31.9911 74.8339 31.9922 74.609 32.0304C74.3458 32.0741 74.1307 32.1986 74.0084 32.3743C73.8239 32.6386 73.825 32.6582 74.0357 32.8657C74.1744 33.0033 74.7706 33.2085 75.6736 33.4313C76.6715 33.6781 77.2382 33.8811 77.5844 34.1148C77.889 34.3212 78.1685 34.6334 78.3214 34.9381C78.4677 35.2296 78.5681 35.6292 78.5692 35.9208C78.5692 36.22 78.4655 36.6261 78.3039 36.9581C78.1576 37.2583 77.8497 37.6492 77.6193 37.8272C77.39 38.0052 76.9565 38.2487 76.6563 38.3666C76.2228 38.538 75.8494 38.5828 74.8547 38.5828C73.9866 38.5828 73.3795 38.5227 72.8893 38.3873C72.4984 38.2803 71.995 38.0991 71.7701 37.9844C71.5441 37.8709 71.3595 37.7158 71.3595 37.6405C71.3595 37.5652 71.5189 37.1459 71.7144 36.708C71.9677 36.1403 72.1162 35.9262 72.2341 35.9623C72.3237 35.9907 72.7167 36.1468 73.1076 36.3084C73.5892 36.5093 74.0794 36.6185 74.6363 36.6502C75.1888 36.6818 75.5436 36.6502 75.7282 36.5519C75.9007 36.4602 76.011 36.2986 76.0284 36.1097C76.0459 35.9164 75.988 35.7766 75.8646 35.7122C75.7587 35.6576 75.0708 35.4611 74.336 35.2755C73.6001 35.0899 72.8631 34.8693 72.6982 34.7841C72.5322 34.699 72.2407 34.4653 72.0496 34.2655C71.8574 34.0646 71.6489 33.7654 71.5855 33.6005C71.5211 33.4357 71.4698 33.0426 71.4709 32.727C71.472 32.3536 71.5572 31.9856 71.7166 31.6712C71.8509 31.4058 72.1086 31.0663 72.2887 30.9167C72.4689 30.7671 72.8369 30.5487 73.1076 30.4308C73.3773 30.3129 73.7955 30.1753 74.0357 30.1251C74.276 30.0748 74.9147 30.0541 75.4552 30.0792ZM83.4259 30.0792C83.9708 30.1043 84.7242 30.2222 85.1183 30.3434C85.5081 30.4636 85.9154 30.6252 86.0235 30.7027C86.2102 30.837 86.2026 30.8861 85.8761 31.6624C85.6872 32.1134 85.5005 32.5196 85.4612 32.5654C85.423 32.6113 85.1205 32.525 84.7908 32.3733C84.4599 32.2215 83.9195 32.0675 83.5897 32.0293C83.2589 31.9911 82.8046 31.9922 82.5797 32.0304C82.3166 32.0741 82.1015 32.1986 81.9792 32.3743C81.7947 32.6386 81.7957 32.6582 82.0065 32.8657C82.1451 33.0033 82.7413 33.2085 83.6443 33.4313C84.6423 33.6781 85.209 33.8811 85.5551 34.1148C85.8597 34.3212 86.1393 34.6334 86.2921 34.9381C86.4384 35.2296 86.5389 35.6292 86.54 35.9208C86.54 36.22 86.4362 36.6261 86.2747 36.9581C86.1283 37.2583 85.8204 37.6492 85.59 37.8272C85.3607 38.0052 84.9273 38.2487 84.627 38.3666C84.1935 38.538 83.8201 38.5828 82.8254 38.5828C81.9573 38.5828 81.3503 38.5227 80.86 38.3873C80.4691 38.2803 79.9658 38.0991 79.7408 37.9844C79.5148 37.8709 79.3303 37.7158 79.3303 37.6405C79.3303 37.5652 79.4897 37.1459 79.6851 36.708C79.9385 36.1403 80.087 35.9262 80.2049 35.9623C80.2944 35.9907 80.6875 36.1468 81.0784 36.3084C81.5599 36.5093 82.0502 36.6185 82.607 36.6502C83.1595 36.6818 83.5144 36.6502 83.6989 36.5519C83.8714 36.4602 83.9817 36.2986 83.9992 36.1097C84.0166 35.9164 83.9588 35.7766 83.8354 35.7122C83.7295 35.6576 83.0416 35.4611 82.3067 35.2755C81.5708 35.0899 80.8338 34.8693 80.6689 34.7841C80.503 34.699 80.2114 34.4653 80.0203 34.2655C79.8282 34.0646 79.6196 33.7654 79.5563 33.6005C79.4919 33.4357 79.4406 33.0426 79.4417 32.727C79.4427 32.3536 79.5279 31.9856 79.6873 31.6712C79.8216 31.4058 80.0793 31.0663 80.2595 30.9167C80.4396 30.7671 80.8076 30.5487 81.0784 30.4308C81.3481 30.3129 81.7663 30.1753 82.0065 30.1251C82.2467 30.0748 82.8854 30.0541 83.4259 30.0792ZM52.3804 30.1152L55.1276 30.1567C57.5166 30.1928 57.9392 30.2255 58.3672 30.4046C58.6369 30.5181 58.995 30.7125 59.1632 30.837C59.3313 30.9604 59.5639 31.2584 59.6807 31.4987C59.7965 31.7389 59.8926 32.144 59.8937 32.3995C59.8948 32.655 59.8216 33.036 59.7321 33.2457C59.6414 33.4564 59.4362 33.7632 59.2757 33.9281C59.0595 34.1519 59.0245 34.2404 59.1392 34.2731C59.2254 34.2971 59.4733 34.4937 59.6906 34.7099C59.909 34.925 60.1415 35.2984 60.2092 35.5386C60.2758 35.7788 60.3304 36.1228 60.3293 36.3029C60.3282 36.4831 60.2398 36.827 60.1317 37.0673C60.0247 37.3075 59.7681 37.6361 59.5617 37.7988C59.3543 37.9604 58.9645 38.1777 58.6948 38.2814C58.2831 38.4387 57.7274 38.4758 52.3619 38.5413L52.3804 30.1152ZM54.7629 33.4105C56.9303 33.3592 57.093 33.3287 57.2306 33.1376C57.3157 33.0175 57.3867 32.8209 57.3867 32.7008C57.3867 32.5807 57.3157 32.3842 57.2306 32.2641C57.0941 32.0741 56.9237 32.0402 55.9279 32.0086L54.7826 31.9714L54.7629 33.4105ZM54.7629 36.6862C57.224 36.6862 57.2972 36.6731 57.5527 36.4132C57.7001 36.2625 57.8202 36.066 57.8202 35.9765C57.8202 35.8858 57.6979 35.6893 57.5472 35.5397C57.2884 35.2798 57.2131 35.2667 56.0186 35.2667H54.7629V36.6862ZM16.547 41.1007C16.9565 41.1225 17.2873 41.2186 17.5843 41.4031C17.8245 41.5527 18.1488 41.8421 18.3039 42.0462C18.4589 42.2504 18.6434 42.59 18.7144 42.8007C18.7854 43.0104 18.8421 43.3543 18.8411 43.5651C18.8389 43.7747 18.7668 44.1437 18.6816 44.384C18.5965 44.6242 18.3388 45.0085 18.1106 45.24C17.8813 45.4704 17.5461 45.7292 17.3659 45.8154C17.1858 45.9017 16.7435 45.9759 16.3832 45.9803C16.0196 45.9847 15.5589 45.9148 15.3459 45.822C15.1363 45.7303 14.7825 45.4682 14.5598 45.2378C14.337 45.0085 14.0783 44.5991 13.9844 44.3294C13.8905 44.0586 13.8129 43.7146 13.8129 43.5651C13.8129 43.4144 13.8916 43.0704 13.9876 42.8007C14.0837 42.5299 14.2661 42.1904 14.3938 42.0462C14.5216 41.901 14.8 41.6488 15.0129 41.4839C15.2269 41.319 15.5239 41.1585 15.6735 41.1269C15.8242 41.0963 16.2173 41.0843 16.547 41.1007ZM40.6776 41.093C41.0248 41.1181 41.4834 41.2459 41.7651 41.3955C42.0698 41.5571 42.3668 41.8366 42.56 42.1456C42.7293 42.4153 42.9203 42.8335 42.9837 43.0737C43.047 43.3139 43.0656 43.6819 43.0241 43.8926C42.9837 44.1023 42.881 44.4091 42.797 44.575C42.7129 44.7399 42.5087 45.0271 42.3427 45.2138C42.1779 45.4005 41.8459 45.6538 41.6057 45.7783C41.3033 45.9344 40.9681 46.0021 40.5138 46C40.0847 45.9978 39.7091 45.9213 39.422 45.7794C39.1817 45.6593 38.8378 45.3885 38.6576 45.1756C38.4775 44.9638 38.27 44.6012 38.1958 44.3687C38.1215 44.1372 38.0615 43.7747 38.0615 43.5651C38.0615 43.3543 38.1215 42.9885 38.1958 42.7516C38.27 42.5147 38.5266 42.1063 38.7668 41.8442C39.007 41.5833 39.4001 41.2972 39.6403 41.2099C39.9046 41.1127 40.3151 41.0668 40.6776 41.093Z" fill="#F2EBE5"/>
</svg>
