<svg width="48" height="34" viewBox="0 0 48 34" fill="none" xmlns="http://www.w3.org/2000/svg">
<path d="M44 5.91114C44 5.19386 43.9987 4.77601 43.9736 4.46876C43.9622 4.32929 43.9474 4.25599 43.9404 4.22559C43.9006 4.15562 43.8439 4.09799 43.7744 4.0586C43.7439 4.05161 43.6703 4.03773 43.5313 4.02637C43.224 4.0013 42.8062 4.00001 42.0889 4.00001H5.91114C5.19387 4.00001 4.77601 4.00129 4.46876 4.02637C4.32966 4.03774 4.25615 4.05161 4.22559 4.0586C4.15574 4.09824 4.09823 4.15574 4.0586 4.22559C4.05161 4.25615 4.03774 4.32966 4.02637 4.46876C4.00129 4.77601 4.00001 5.19387 4.00001 5.91114V8.45899C6.90994 10.0378 8.88862 13.1193 8.88868 16.667C8.88868 20.2145 6.90971 23.2951 4.00001 24.874V27.4219C4.00001 28.1395 4.00127 28.558 4.02637 28.8652C4.03769 29.0036 4.0516 29.0767 4.0586 29.1074C4.09805 29.1771 4.15541 29.2346 4.22559 29.2744C4.25607 29.2814 4.32951 29.2953 4.46876 29.3066C4.77601 29.3317 5.19384 29.333 5.91114 29.333H42.0889C42.8062 29.333 43.224 29.3317 43.5313 29.3066C43.6691 29.2954 43.7424 29.2815 43.7734 29.2744C43.8436 29.2348 43.9007 29.1775 43.9404 29.1074C43.9474 29.0769 43.9623 29.004 43.9736 28.8652C43.9987 28.558 44 28.1395 44 27.4219V24.874C41.0903 23.2953 39.1113 20.2147 39.1113 16.667C39.1114 13.1195 41.0901 10.038 44 8.45899V5.91114ZM48 9.75098C47.9999 10.5985 47.4651 11.3543 46.666 11.6367C44.5924 12.3699 43.1114 14.3481 43.1113 16.667C43.1113 18.9858 44.592 20.9641 46.666 21.6973C47.4652 21.9797 48 22.7354 48 23.583V27.4219C48 28.0733 48.0015 28.6825 47.96 29.1904C47.9166 29.7216 47.8163 30.316 47.5156 30.9063C47.0895 31.7426 46.4096 32.4225 45.5732 32.8486C44.9829 33.1495 44.3887 33.2496 43.8574 33.293C43.3495 33.3345 42.7404 33.333 42.0889 33.333H5.91114C5.25964 33.333 4.65054 33.3345 4.14258 33.293C3.61133 33.2496 3.01709 33.1494 2.42676 32.8486C1.69553 32.476 1.08343 31.9092 0.656256 31.2129L0.484381 30.9063C0.183701 30.316 0.0834451 29.7216 0.0400454 29.1904C-0.00143635 28.6825 6.31453e-06 28.0734 6.31453e-06 27.4219V23.583C9.65187e-05 22.7354 0.534849 21.9797 1.33399 21.6973C3.4078 20.9641 4.88868 18.9859 4.88868 16.667C4.88861 14.3482 3.40785 12.3699 1.33399 11.6367C0.534804 11.3543 6.31453e-06 10.5986 6.31453e-06 9.75098V5.91114C6.31453e-06 5.25963 -0.00145412 4.65053 0.0400454 4.14258C0.083459 3.61135 0.183621 3.01707 0.484381 2.42676L0.656256 2.12012C1.08327 1.42418 1.69524 0.857143 2.42676 0.484381L2.64844 0.380866C3.16486 0.159652 3.6778 0.0780284 4.14258 0.0400454C4.65053 -0.00145432 5.25963 6.32049e-06 5.91114 6.32049e-06H42.0889C42.7404 6.32049e-06 43.3495 -0.0014546 43.8574 0.0400454C44.3222 0.0780259 44.8352 0.159651 45.3516 0.380866L45.5732 0.484381L45.8799 0.656256C46.5761 1.08342 47.143 1.69561 47.5156 2.42676C47.8164 3.01707 47.9166 3.61135 47.96 4.14258C48.0015 4.65054 48 5.25964 48 5.91114V9.75098Z" fill="#595957"/>
</svg>
